<svg version="1.1" id="Layer_1" xmlns="http://www.w3.org/2000/svg" xmlns:xlink="http://www.w3.org/1999/xlink" x="0px" y="0px"
	 width="100%" viewBox="0 0 2084 2084" enable-background="new 0 0 2084 2084" xml:space="preserve">
<path fill="#FFFFFF" opacity="1.000000" stroke="none"
	d="
M266.455505,1165.913086
	C291.382263,1166.253784 315.363403,1166.784668 339.346344,1166.886597
	C350.656158,1166.934570 361.979828,1166.341064 373.277771,1165.697021
	C381.531433,1165.226562 388.439514,1161.894287 394.449432,1155.852905
	C414.799255,1135.396362 439.309540,1125.960571 468.436981,1127.399048
	C483.987915,1128.167114 499.790222,1127.822144 515.224609,1125.917725
	C532.648132,1123.767822 538.671448,1116.061401 539.947815,1098.740234
	C540.362915,1093.107300 540.162537,1087.420044 540.063110,1081.760742
	C539.973145,1076.644043 537.158691,1073.747925 532.125366,1073.184814
	C528.491211,1072.778076 524.813049,1072.760498 521.181030,1072.340576
	C518.566467,1072.038330 515.841370,1071.738281 513.439087,1070.763428
	C509.198242,1069.042358 507.807739,1065.372925 508.113037,1060.992065
	C508.433441,1056.394653 511.688019,1054.833618 515.547729,1054.338623
	C518.840210,1053.916382 522.215759,1054.170898 525.521240,1053.815430
	C534.532837,1052.846680 538.048035,1049.517456 538.496704,1040.520020
	C538.810486,1034.227051 538.816895,1027.777954 537.815857,1021.583496
	C532.349304,987.753174 534.996704,953.804016 535.376465,919.842224
	C535.730103,888.216492 534.834473,856.566711 533.926392,824.943665
	C533.689941,816.711975 531.931091,808.391785 529.864319,800.371765
	C525.288269,782.614990 513.860901,771.052490 495.646240,768.157532
	C480.893951,765.812927 465.861298,764.337830 450.932617,764.156921
	C394.298462,763.470764 337.654846,763.112610 281.017151,763.311340
	C227.374100,763.499573 173.735184,764.681702 120.091934,765.117798
	C104.126175,765.247620 88.147530,764.448059 72.184578,763.823975
	C68.038460,763.661865 62.898949,763.959045 62.263882,757.893372
	C61.810162,753.559875 64.957626,749.883179 71.597015,749.574158
	C88.858810,748.770569 106.183998,748.333923 123.449753,748.863708
	C144.754822,749.517395 166.080017,751.994141 187.244949,748.027832
	C193.978714,746.765991 200.693115,744.282532 206.811447,741.169250
	C212.930176,738.055725 218.970245,735.878418 225.820221,736.050903
	C235.809280,736.302368 245.799469,736.778442 255.787354,736.735535
	C267.089874,736.686768 278.448700,736.775574 289.676086,735.694214
	C301.977386,734.509277 305.978363,728.321899 303.874725,714.779541
	C300.585297,714.638489 297.061523,714.341125 293.539459,714.359924
	C269.877411,714.486084 246.212402,714.996277 222.554932,714.749756
	C203.962753,714.555969 185.372452,713.602112 166.798447,712.651550
	C162.224213,712.417419 157.554291,711.342285 153.222214,709.818420
	C148.499847,708.157104 145.855392,704.520264 145.874039,699.082642
	C145.891937,693.863098 147.762741,689.583191 152.554611,687.842834
	C157.783936,685.943604 163.394287,684.422852 168.912109,684.131836
	C179.547012,683.570862 190.237579,683.816956 200.897766,684.054932
	C211.328293,684.287842 219.703918,680.629395 225.990540,672.220276
	C228.382812,669.020264 231.143509,666.090210 233.462723,662.841797
	C255.122513,632.504089 285.487946,619.511108 321.820557,618.166748
	C337.458374,617.588196 353.092621,616.843323 368.715454,615.946716
	C387.309662,614.879456 401.627960,606.142517 411.921600,590.810303
	C415.013123,586.205505 419.209778,581.333618 416.299316,575.319885
	C413.292755,569.107544 406.828674,569.780762 401.311920,569.956177
	C378.381256,570.685486 355.464783,571.858337 332.534363,572.599487
	C325.226868,572.835632 317.881104,572.414062 310.575409,571.943481
	C307.297455,571.732361 304.034363,570.809387 300.838226,569.938965
	C297.275818,568.968750 295.315765,566.791565 295.368347,562.718018
	C295.418884,558.800415 297.877167,557.396790 300.855164,556.705444
	C306.025360,555.505249 311.291382,553.881592 316.514771,553.890381
	C340.148376,553.929993 363.799408,554.021179 387.409515,554.962708
	C415.729797,556.092163 444.047302,558.150085 472.023682,551.807678
	C484.343536,549.014709 496.311798,544.016846 508.741333,542.512756
	C528.167175,540.162048 547.851440,538.983337 567.422607,539.024414
	C596.487244,539.085449 625.223206,542.775330 653.023315,551.925110
	C667.656494,556.741272 681.508972,563.121582 693.907227,572.405823
	C703.343384,579.471985 711.674988,587.584778 717.121399,598.181396
	C721.467407,606.637024 728.297302,611.190613 737.575745,612.198242
	C755.781494,614.175354 773.996033,616.072266 792.210938,617.963623
	C811.236267,619.939087 829.607422,624.027039 846.532288,633.494507
	C858.738159,640.322327 869.464966,648.844849 875.519409,661.561829
	C883.394226,678.102234 896.241638,683.796265 913.689819,682.272095
	C921.300781,681.607178 929.014465,681.774719 936.664124,682.047974
	C940.241821,682.175781 944.005005,682.923157 947.282471,684.327209
	C952.687012,686.642456 955.063904,692.701538 953.647095,698.616516
	C952.095703,705.093506 948.429260,708.262146 941.875122,708.306824
	C927.919617,708.401855 913.963013,708.335815 899.037048,708.335815
	C899.037048,714.067322 898.787781,719.253296 899.101196,724.405151
	C899.478455,730.605103 902.750305,734.906921 908.627075,737.251587
	C912.331482,738.729553 916.029358,740.296387 919.533569,742.187622
	C925.655457,745.491333 927.370422,748.999634 925.854004,754.146118
	C924.202271,759.751953 920.324646,762.821838 914.242188,762.817261
	C894.578552,762.802429 874.915100,762.658264 855.251526,762.559631
	C805.925720,762.312256 756.596191,762.340149 707.275940,761.676819
	C687.643188,761.412781 668.039612,759.035522 648.406250,758.748474
	C637.529785,758.589417 626.418213,759.820740 615.770630,762.098633
	C599.360046,765.609619 588.272583,776.186035 581.819153,791.712036
	C576.737244,803.938538 575.409424,816.860474 574.698853,829.829407
	C571.744141,883.759827 571.430908,937.717651 573.416138,991.694641
	C574.922241,1032.642700 576.800964,1073.588257 577.454712,1114.551880
	C577.801514,1136.286621 587.880798,1149.118530 608.662170,1155.475342
	C632.345337,1162.719971 656.776917,1161.920532 680.909912,1157.482544
	C685.590759,1156.621704 690.128479,1152.418701 693.678223,1148.740112
	C696.811829,1145.492920 698.923828,1141.013306 700.699097,1136.749878
	C705.227844,1125.874146 712.774536,1117.844116 722.409668,1111.335327
	C732.620178,1104.437988 742.746887,1097.385010 752.555908,1089.933594
	C763.291138,1081.778564 762.640747,1072.414429 750.556580,1066.018555
	C739.370544,1060.097900 727.679565,1057.430664 715.248596,1063.802246
	C704.800720,1069.157349 694.775024,1064.947998 689.989929,1054.138428
	C685.017029,1042.904419 688.850098,1030.470947 698.758606,1025.696045
	C707.650757,1021.410706 716.752930,1022.561768 723.148438,1030.266968
	C728.106750,1036.240479 733.632202,1038.994385 741.204895,1038.566284
	C751.229797,1037.999268 759.178040,1042.024780 765.618835,1049.688965
	C768.820312,1053.498413 772.367737,1057.173706 776.323486,1060.161865
	C786.253296,1067.663208 789.873718,1077.680420 789.495972,1089.684937
	C789.223755,1098.334839 789.189331,1106.992065 789.021179,1115.645508
	C788.704224,1131.966553 788.421204,1148.288696 788.016541,1164.607544
	C787.807251,1173.046631 790.594116,1180.293091 796.214355,1186.484619
	C806.510620,1197.827148 816.480286,1209.559937 829.872559,1217.507568
	C834.007202,1219.961426 836.133362,1223.154663 836.178528,1227.993408
	C836.203125,1230.632080 836.679138,1233.308472 837.276978,1235.892700
	C840.033875,1247.808960 848.620911,1253.688477 860.853333,1252.168823
	C871.821045,1250.806152 880.378174,1241.747070 880.310059,1231.570801
	C880.235474,1220.424805 871.049988,1210.260010 860.082520,1209.308960
	C857.432922,1209.079224 854.565247,1209.783569 852.132324,1209.008423
	C848.509216,1207.854004 844.402588,1206.531128 841.867371,1203.942383
	C831.378418,1193.232178 821.299622,1182.110962 811.335144,1170.905151
	C809.547424,1168.894653 808.214722,1165.828125 808.027161,1163.154053
	C806.955933,1147.878540 806.086548,1132.581177 805.575378,1117.276978
	C805.286926,1108.641846 805.452942,1099.953247 806.071350,1091.335815
	C806.849365,1080.495361 812.399902,1072.625610 822.454956,1068.111938
	C826.400513,1066.340820 830.409790,1064.672241 834.208130,1062.620361
	C843.269226,1057.725830 845.563904,1052.452881 841.715637,1042.842651
	C839.808228,1038.079346 836.815735,1033.284668 833.102234,1029.792969
	C818.781494,1016.327087 803.912903,1003.445801 789.391479,990.190063
	C786.284302,987.353760 783.115845,985.983765 778.833374,985.696045
	C755.898193,984.155212 732.997925,982.088013 710.059326,980.610840
	C704.987244,980.284180 701.382690,978.434143 697.900452,975.021606
	C681.716370,959.161560 665.265808,943.572021 649.170288,927.623596
	C644.143921,922.643127 638.779114,920.020142 631.579773,919.828430
	C620.189941,919.525330 613.113403,913.187134 611.299683,902.920410
	C609.622009,893.423645 614.877563,883.257751 623.733643,878.869263
	C632.318481,874.615112 643.949402,876.754150 649.978699,884.501892
	C652.260315,887.433899 653.828491,891.656067 653.976257,895.359741
	C654.278076,902.928162 657.282410,908.594360 662.619629,913.711792
	C674.887573,925.474365 687.391113,937.057556 698.832275,949.595825
	C708.818481,960.539673 720.972656,963.281433 734.814819,963.208313
	C749.111511,963.132812 763.413818,963.544128 777.708923,963.921875
	C791.546875,964.287598 803.655029,968.846436 813.797607,978.636841
	C827.461304,991.825928 841.207520,1004.945801 855.327881,1017.639771
	C863.907349,1025.352539 867.485168,1034.784180 867.878357,1045.895020
	C868.502686,1063.538940 869.162048,1081.181519 869.806946,1098.824707
	C869.880005,1100.823120 869.973572,1102.821045 870.025818,1104.820068
	C870.304565,1115.479614 873.612183,1124.152832 881.761719,1132.105835
	C904.649475,1154.441772 926.481812,1177.856812 948.877686,1200.701904
	C952.497681,1204.394653 954.974609,1208.225586 955.968140,1213.419434
	C957.719055,1222.571777 963.590149,1228.002319 972.846436,1229.433472
	C983.203430,1231.035034 991.194519,1225.231934 992.232239,1215.551758
	C993.440552,1204.280396 986.594177,1194.721436 976.566467,1193.837769
	C974.610901,1193.665405 972.611511,1193.990234 970.794067,1194.078003
	C966.098022,1186.510620 962.277588,1178.649414 956.878967,1172.086426
	C950.136902,1163.890381 942.210632,1156.645142 934.589294,1149.200806
	C922.437378,1137.331421 910.144958,1125.604858 897.848877,1113.884277
	C893.447693,1109.689087 891.758728,1104.744385 891.977234,1098.654175
	C892.562622,1082.343872 892.806641,1066.020996 893.116333,1049.701782
	C893.179504,1046.375732 892.822754,1043.042480 892.857178,1039.714722
	C892.952209,1030.530518 889.381165,1023.916016 880.732117,1019.809998
	C871.390137,1015.375122 867.178528,1007.491760 867.558411,997.090271
	C868.032471,984.111816 867.576233,971.049316 868.893677,958.163330
	C870.977844,937.777588 867.478271,920.139343 851.060364,905.920959
	C842.968384,898.913086 836.187317,891.418335 824.495178,889.860046
	C812.762817,888.296265 811.126526,880.082642 810.479248,869.864624
	C809.860535,860.097961 815.413208,852.948975 824.741638,850.846375
	C828.567688,849.984070 832.706055,849.944275 836.645081,850.255066
	C846.924316,851.066284 853.244202,855.466919 852.975464,865.536926
	C852.610596,879.209961 860.660889,886.152954 869.795227,892.866699
	C886.768127,905.341736 893.819397,922.660828 894.654541,942.889404
	C894.982483,950.831299 893.805847,958.838013 893.262451,966.811584
	C893.103943,969.136292 892.776855,971.449890 892.508850,973.766541
	C890.835632,988.227722 893.765442,1000.941101 906.134460,1010.173096
	C907.720703,1011.356934 909.134521,1012.851013 910.377197,1014.402466
	C916.653259,1022.237793 925.183960,1024.986206 934.784363,1026.063843
	C950.005554,1027.772217 965.186035,1029.864380 980.356323,1031.989868
	C984.564087,1032.579468 988.674927,1033.860229 993.725769,1035.031616
	C993.948547,1044.114502 994.512268,1052.695068 994.290222,1061.255371
	C993.911133,1075.872070 993.251770,1090.489746 992.310730,1105.081177
	C991.480652,1117.951050 994.388000,1129.734863 1002.466919,1139.694824
	C1007.677185,1146.118164 1013.980225,1151.675781 1019.960388,1157.448730
	C1027.620239,1164.843140 1035.483521,1172.026123 1043.188599,1179.374512
	C1047.267944,1183.265015 1048.711792,1188.080444 1048.699585,1193.762329
	C1048.641479,1220.735718 1049.574097,1247.730591 1048.800293,1274.678955
	C1047.299438,1326.956909 1044.691772,1379.202393 1043.001587,1431.476196
	C1042.582886,1444.425415 1043.878662,1457.433594 1044.485474,1470.410034
	C1044.609253,1473.059570 1044.977539,1475.734741 1045.578003,1478.317871
	C1047.126953,1484.981934 1050.492798,1487.954224 1056.334106,1488.142090
	C1062.844849,1488.351562 1067.913330,1484.581665 1069.309692,1478.069946
	C1069.932617,1475.165039 1070.113159,1472.105591 1070.056030,1469.124512
	C1069.667603,1448.807007 1068.984131,1428.493530 1068.762329,1408.174805
	C1068.631592,1396.205933 1069.155273,1384.229492 1069.418579,1372.257080
	C1069.582764,1364.791260 1072.988770,1358.797729 1078.338867,1353.912964
	C1090.146606,1343.132690 1102.177856,1332.596069 1113.933716,1321.760254
	C1123.968018,1312.511353 1133.877686,1303.117676 1143.592773,1293.534790
	C1150.989014,1286.239380 1155.110107,1277.263794 1155.170776,1266.734375
	C1155.312866,1242.084839 1155.377930,1217.434692 1155.377930,1192.784790
	C1155.377930,1190.835449 1155.159058,1188.537231 1154.140137,1186.998169
	C1150.124146,1180.931763 1152.382324,1176.699341 1157.225952,1172.450317
	C1185.545654,1147.607056 1212.818970,1121.697632 1237.463257,1093.122925
	C1239.835205,1090.372803 1242.543701,1087.470337 1245.722656,1085.942871
	C1254.833008,1081.565674 1256.713867,1073.744873 1257.525146,1064.829346
	C1258.490356,1054.221191 1259.882812,1043.645874 1261.368896,1033.095459
	C1261.716675,1030.626831 1262.605225,1027.776978 1264.234619,1026.020752
	C1274.428589,1015.033325 1285.100830,1004.487549 1295.231201,993.443787
	C1306.157104,981.532532 1319.363403,974.552246 1335.545776,974.326172
	C1352.420654,974.090576 1364.983154,966.465881 1376.468384,954.598877
	C1388.705933,941.954468 1402.259521,930.551270 1415.588745,919.010681
	C1421.442749,913.942261 1425.156250,909.172302 1424.391968,900.479736
	C1423.392456,889.112000 1437.291260,876.746643 1447.688354,878.094360
	C1460.079834,879.700623 1468.694824,891.771118 1466.337646,904.298401
	C1464.742676,912.775146 1459.251343,918.721924 1451.268188,919.719849
	C1439.070068,921.244568 1431.998779,929.303345 1424.199829,936.986755
	C1408.531494,952.423096 1392.607300,967.603088 1377.103394,983.201660
	C1370.316284,990.030090 1362.229126,992.951538 1353.016968,993.753601
	C1349.697388,994.042664 1346.371582,994.259827 1343.049805,994.524963
	C1331.214722,995.469482 1321.326172,1000.033875 1313.616211,1009.391602
	C1307.265259,1017.099792 1300.417725,1024.400879 1293.739136,1031.836548
	C1289.296265,1036.783081 1287.178589,1042.297363 1287.690552,1049.148682
	C1288.531494,1060.402222 1287.995483,1071.752930 1292.671875,1082.493164
	C1295.145996,1088.175293 1292.079590,1093.021851 1288.232178,1096.866821
	C1278.110596,1106.981812 1267.797729,1116.912231 1257.357300,1126.698486
	C1252.991699,1130.790649 1248.092407,1134.310913 1243.466064,1138.128052
	C1230.579834,1148.760620 1224.031860,1162.578979 1224.028076,1179.149414
	C1224.022827,1201.792725 1224.588135,1224.436157 1224.921753,1247.986206
	C1213.135986,1259.319946 1200.891846,1271.587402 1188.058716,1283.204468
	C1182.572266,1288.171021 1179.043335,1293.672485 1177.959717,1300.828003
	C1176.797729,1308.500488 1172.893433,1314.360962 1166.693604,1318.897217
	C1155.671875,1326.961426 1144.666626,1335.049561 1133.749634,1343.254272
	C1128.694336,1347.053711 1123.787598,1351.061523 1118.948364,1355.135132
	C1112.895386,1360.230835 1110.638306,1367.055054 1110.815918,1374.737183
	C1111.269897,1394.373779 1111.826294,1414.008179 1112.359131,1433.642944
	C1112.394043,1434.928223 1112.575073,1436.209717 1112.742554,1438.109619
	C1115.539062,1438.353027 1118.075684,1438.754028 1120.613770,1438.765015
	C1134.946533,1438.827026 1149.280151,1438.717041 1163.612305,1438.829834
	C1170.670654,1438.885376 1171.879395,1439.967896 1172.375366,1445.479492
	C1173.012939,1452.563477 1170.172119,1458.045654 1164.958374,1458.959595
	C1162.040771,1459.471191 1158.977173,1459.193726 1155.979370,1459.197144
	C1141.734497,1459.213623 1127.489624,1459.204590 1112.537354,1459.204590
	C1112.537354,1479.767822 1112.537354,1499.319458 1112.537354,1519.567383
	C1108.976685,1519.759277 1106.097412,1520.084961 1103.223877,1520.040161
	C1089.565552,1519.827148 1075.909912,1519.427734 1062.251343,1519.266357
	C1053.639282,1519.164551 1048.877075,1522.222656 1048.484497,1527.686523
	C1048.071899,1533.431641 1051.878540,1537.711548 1059.980347,1539.095947
	C1076.881592,1541.983521 1093.843750,1540.648804 1111.953369,1538.996704
	C1112.151245,1542.336304 1112.444824,1545.841431 1112.554077,1549.352295
	C1114.120728,1599.634521 1115.672241,1649.917236 1117.203003,1700.200562
	C1117.598389,1713.187378 1117.494019,1726.205933 1118.402588,1739.155029
	C1119.028076,1748.068848 1120.302124,1757.068237 1122.520386,1765.712524
	C1127.369141,1784.607788 1139.299316,1798.336182 1156.889893,1806.245117
	C1178.711426,1816.056519 1200.691040,1825.718872 1223.214844,1833.721558
	C1264.586548,1848.421265 1306.514038,1861.550781 1347.985107,1875.980469
	C1363.978394,1881.545288 1379.398193,1888.778809 1394.993408,1895.452881
	C1399.240356,1897.270508 1403.918213,1899.377197 1400.968750,1906.263062
	C1398.945312,1906.446411 1396.714966,1906.825317 1394.484619,1906.825562
	C1166.490356,1906.852539 938.496033,1906.850952 710.501770,1906.850830
	C705.949463,1906.850830 700.713745,1907.922729 700.684937,1899.397461
	C705.507568,1896.997925 710.603149,1893.898315 716.086853,1891.825684
	C751.550049,1878.423340 787.098633,1865.247192 822.617676,1851.992554
	C858.453125,1838.619751 894.343506,1825.390625 930.076477,1811.749146
	C937.801880,1808.799927 945.065369,1804.555298 952.353455,1800.563721
	C967.093323,1792.491333 975.783813,1779.888062 977.973633,1763.339111
	C980.287598,1745.852051 982.638306,1728.297119 983.468872,1710.700928
	C985.542114,1666.776855 987.119507,1622.821411 988.221985,1578.861816
	C989.274475,1536.896118 989.453918,1494.908569 990.087158,1452.931763
	C990.146484,1448.997070 990.708191,1445.069946 991.136902,1439.938721
	C988.143188,1439.558228 985.366882,1438.923462 982.585327,1438.900146
	C969.586548,1438.790527 956.585938,1438.915527 943.586914,1438.821777
	C936.731689,1438.772339 931.775574,1433.982056 931.339172,1427.321167
	C930.980957,1421.852173 933.859558,1418.022949 941.310486,1417.132202
	C949.847473,1416.111328 958.560181,1416.542236 967.197449,1416.386108
	C971.513977,1416.308105 975.864685,1416.653564 980.142639,1416.229492
	C987.589783,1415.491089 989.343994,1414.149658 990.799927,1406.699829
	C993.440369,1393.188965 993.125854,1379.503784 991.258423,1365.943970
	C990.413635,1359.810547 986.734863,1354.854736 981.135132,1351.791016
	C978.234741,1350.204224 975.239441,1348.469482 972.071350,1347.747192
	C956.362915,1344.165771 943.234802,1336.033813 931.254395,1325.616333
	C917.608704,1313.750977 902.078369,1308.764893 883.600098,1308.923218
	C814.946289,1309.511475 746.282654,1308.919800 677.622742,1308.913696
	C669.133484,1308.912964 661.800415,1308.456421 658.787842,1298.294922
	C657.128296,1292.697021 651.160095,1292.281372 646.132019,1292.234009
	C633.806335,1292.117676 621.475342,1292.229492 609.150391,1292.458740
	C574.506470,1293.103149 539.867310,1294.095215 505.221039,1294.498291
	C463.899231,1294.979126 422.571808,1294.972534 381.247009,1295.209351
	C318.261810,1295.570312 255.276047,1295.881470 192.292725,1296.454956
	C185.923645,1296.512817 180.432861,1295.366455 175.888107,1290.973145
	C164.047470,1279.526978 150.054001,1275.981812 133.844772,1277.828735
	C123.974174,1278.953369 113.865440,1278.593628 103.900818,1278.119873
	C93.608231,1277.630493 87.930122,1268.165405 92.433784,1259.018066
	C93.627304,1256.593750 97.374672,1254.261353 100.146423,1254.003540
	C107.733391,1253.297607 115.428154,1253.841797 123.074646,1253.658081
	C130.365585,1253.483154 137.811783,1253.850586 144.897598,1252.474976
	C154.986740,1250.516113 157.927017,1245.484497 157.369019,1233.673462
	C153.805252,1233.673462 150.195068,1233.673462 146.584885,1233.673462
	C110.252457,1233.673462 73.920036,1233.676880 37.587612,1233.666260
	C34.923882,1233.665405 32.194656,1233.912231 29.611044,1233.428711
	C25.173820,1232.598267 21.935049,1227.664185 22.239666,1222.887207
	C22.543663,1218.120117 25.271429,1215.341553 30.853334,1215.229980
	C46.176834,1214.923950 61.506161,1214.863403 76.833549,1214.810181
	C94.832878,1214.747803 112.832649,1214.826416 130.832123,1214.789551
	C200.488953,1214.646606 270.145752,1214.409302 339.802521,1214.422729
	C348.023804,1214.424316 354.975159,1212.661011 359.930267,1205.786255
	C365.470581,1198.099609 363.185913,1190.541138 354.147736,1187.882935
	C349.743286,1186.587524 344.962433,1186.022583 340.357941,1186.052368
	C321.034058,1186.177612 301.713196,1186.708740 282.389618,1186.971924
	C274.733093,1187.076172 267.066833,1187.014526 259.416565,1186.724365
	C256.840851,1186.626587 254.043213,1186.069946 251.803345,1184.870605
	C248.228836,1182.956543 244.410889,1179.962280 245.824097,1175.571655
	C246.780762,1172.599487 249.939636,1169.502563 252.881683,1168.211060
	C256.691284,1166.538574 261.265564,1166.607910 266.455505,1165.913086
M650.999084,1251.717529
	C667.181702,1251.642822 683.364380,1251.567993 699.139587,1251.495117
	C699.139587,1243.540161 699.139587,1237.045410 699.139587,1231.104370
	C623.535156,1231.104370 548.746582,1231.104370 473.664734,1231.104370
	C473.664734,1238.689575 473.664734,1245.185303 473.664734,1251.717529
	C532.470032,1251.717529 590.734375,1251.717529 650.999084,1251.717529
M620.012939,675.331726
	C609.049866,675.475342 598.082458,675.489807 587.126953,675.858948
	C584.585449,675.944580 581.857727,676.827942 579.613037,678.065186
	C575.101746,680.551514 572.882996,685.584961 574.057861,689.851257
	C575.443604,694.883179 579.333069,696.314453 584.033691,696.335205
	C590.691772,696.364563 597.352417,696.235779 604.007751,696.375549
	C648.886108,697.317688 693.848511,693.462341 738.664062,698.970459
	C745.155518,699.768311 751.979614,698.643860 757.776611,693.753235
	C757.776611,689.373718 757.776611,684.843811 757.776611,679.489441
	C712.201721,678.164795 667.035583,676.851990 620.012939,675.331726
M962.852905,1074.050049
	C962.737244,1071.088501 963.002808,1068.052124 962.438416,1065.178711
	C960.257629,1054.075073 954.236511,1051.648682 943.604248,1057.554199
	C943.604248,1067.332886 943.604248,1077.219360 943.604248,1087.004883
	C955.972412,1089.552490 958.667969,1087.869507 962.852905,1074.050049
z"/>
<path fill="#FFFFFF" opacity="1.000000" stroke="none"
	d="
M1368.968018,1409.771973
	C1345.963501,1412.952026 1323.677734,1413.541626 1301.343018,1412.038574
	C1290.442017,1411.304932 1285.100952,1400.763550 1291.083252,1391.545532
	C1292.308594,1389.657471 1295.264771,1388.111572 1297.579712,1387.861938
	C1303.843018,1387.186890 1310.193604,1387.059692 1316.504150,1387.140137
	C1329.826782,1387.309937 1343.146240,1387.741455 1356.466431,1388.084961
	C1362.536499,1388.241455 1367.170898,1385.985229 1371.105103,1381.124268
	C1377.330811,1373.432007 1384.159790,1366.228271 1392.097046,1357.280640
	C1374.322754,1356.781738 1358.180664,1360.393921 1342.088379,1355.656982
	C1341.131104,1352.953369 1340.037476,1350.214111 1339.188599,1347.401001
	C1336.579590,1338.755371 1339.244751,1333.624878 1348.320435,1332.588135
	C1356.191650,1331.689087 1364.262695,1332.642334 1372.244141,1332.586060
	C1388.207520,1332.473511 1404.170776,1332.268555 1420.131836,1331.980469
	C1421.683350,1331.952515 1423.219604,1331.078247 1425.143066,1330.478271
	C1425.143066,1323.986816 1425.143066,1317.794067 1425.143066,1310.177124
	C1418.485107,1310.139282 1411.967041,1309.989136 1405.453003,1310.092285
	C1396.133179,1310.239990 1386.814697,1310.805786 1377.498169,1310.753296
	C1369.934448,1310.710693 1362.750732,1310.002197 1361.353760,1299.823730
	C1361.073120,1297.778076 1356.570435,1295.077759 1353.815430,1294.822266
	C1342.662476,1293.787598 1331.284912,1291.752075 1321.228516,1299.788696
	C1318.629883,1301.865356 1314.368774,1302.703613 1310.880371,1302.681885
	C1294.251343,1302.578491 1277.584229,1302.569702 1261.009399,1301.405884
	C1242.346802,1300.095337 1223.779297,1298.864502 1205.195923,1301.944458
	C1204.262329,1302.099365 1203.264771,1301.868652 1200.693726,1301.732544
	C1202.041504,1298.630371 1202.630005,1295.768799 1204.281128,1293.796997
	C1207.471069,1289.987061 1211.392456,1286.800171 1214.762329,1283.127075
	C1217.866699,1279.743652 1220.532227,1275.960083 1223.597290,1272.537354
	C1227.122192,1268.601318 1230.597778,1264.547729 1234.585083,1261.114746
	C1242.316284,1254.458252 1245.833130,1247.121460 1243.125854,1236.454956
	C1241.366455,1229.523315 1241.964233,1221.897339 1242.122925,1214.595703
	C1242.418945,1200.958862 1242.906738,1187.312622 1243.906250,1173.713867
	C1244.150391,1170.391479 1245.990112,1166.597534 1248.281738,1164.114746
	C1259.125244,1152.367065 1270.221924,1140.839966 1281.553101,1129.560547
	C1287.442261,1123.698364 1293.637939,1117.996826 1300.388184,1113.197510
	C1305.135132,1109.822510 1310.907959,1106.510864 1316.478516,1106.008545
	C1324.174927,1105.314453 1330.795044,1101.918823 1338.019165,1100.233887
	C1344.106079,1098.814331 1348.025513,1092.096191 1346.857788,1085.317261
	C1346.133667,1081.112915 1343.931152,1077.181274 1342.983521,1072.993408
	C1341.677856,1067.222168 1340.135620,1061.326294 1340.124634,1055.481079
	C1340.106812,1045.951416 1345.648682,1040.020386 1354.892822,1038.093018
	C1356.841675,1037.686768 1358.855347,1037.557495 1360.846924,1037.395630
	C1370.136475,1036.640747 1378.526245,1038.578613 1382.735229,1047.755249
	C1387.134277,1057.346191 1388.283081,1067.783813 1379.970703,1075.641113
	C1373.301147,1081.945557 1372.049561,1088.774292 1372.468506,1097.092529
	C1372.902100,1105.701172 1372.564941,1114.348633 1372.564941,1123.484741
	C1376.986450,1123.675171 1379.581421,1120.869019 1381.950317,1118.490356
	C1392.058228,1108.341431 1401.868408,1097.896851 1411.898193,1087.668823
	C1415.236450,1084.264648 1415.997803,1080.173340 1415.887573,1075.747070
	C1415.688721,1067.753418 1415.180542,1059.761597 1415.198608,1051.769897
	C1415.218140,1043.134521 1420.259888,1036.881714 1427.395508,1035.947876
	C1433.800049,1035.109619 1437.960083,1036.890381 1440.004639,1043.051514
	C1441.751831,1048.316895 1442.369873,1054.061890 1442.767578,1059.645996
	C1443.403931,1068.584351 1443.729980,1077.570068 1443.578125,1086.525391
	C1443.526978,1089.545898 1442.401489,1093.239014 1440.430176,1095.412231
	C1433.314331,1103.256592 1426.656372,1111.650513 1416.727417,1116.530518
	C1413.594482,1118.070190 1411.223022,1121.288208 1408.706177,1123.931396
	C1394.229126,1139.135132 1379.855103,1154.437256 1365.357544,1169.621216
	C1358.376587,1176.932739 1350.938477,1182.765869 1339.943237,1183.906250
	C1329.514160,1184.987915 1322.403809,1198.269775 1325.301025,1208.355103
	C1328.391724,1219.113525 1341.526123,1226.552856 1351.305786,1223.052979
	C1352.235352,1222.720215 1353.211304,1222.294556 1353.937622,1221.653442
	C1357.916870,1218.141357 1361.824829,1214.548462 1365.975586,1210.785278
	C1365.636230,1208.734619 1365.514893,1206.755127 1364.965088,1204.902832
	C1362.944092,1198.092896 1364.877930,1192.833984 1369.986938,1187.864136
	C1402.473145,1156.262573 1434.494507,1124.176880 1467.324585,1092.939819
	C1475.515259,1085.146484 1479.466064,1076.868286 1479.454102,1066.013428
	C1479.446411,1059.018433 1479.940430,1052.021729 1479.885376,1045.028442
	C1479.776001,1031.138062 1484.351318,1018.950073 1492.592773,1007.934631
	C1497.377075,1001.540161 1502.171265,995.135559 1506.583374,988.485107
	C1511.100464,981.676331 1512.547852,974.240417 1512.395630,965.812134
	C1511.818604,933.833557 1512.663330,901.824341 1511.807495,869.857910
	C1511.364014,853.294739 1508.472534,836.796997 1506.672974,820.271240
	C1506.601318,819.613220 1506.180786,818.942505 1506.266602,818.325500
	C1508.030762,805.633911 1499.989990,796.770569 1492.912964,788.517212
	C1484.319824,778.496277 1473.405151,770.709717 1459.179443,770.031311
	C1450.206055,769.603394 1441.223389,768.805176 1432.255005,768.925415
	C1354.629761,769.965637 1277.007812,771.242432 1199.382812,772.287781
	C1181.391235,772.530090 1163.391235,772.169373 1145.395508,772.052551
	C1142.063843,772.030945 1138.719360,772.004883 1135.405029,771.708862
	C1127.625610,771.014038 1124.024902,767.728149 1124.218384,761.757751
	C1124.440430,754.909180 1129.096313,750.160339 1136.237305,750.082336
	C1163.230225,749.787476 1190.224854,749.637512 1217.218750,749.441772
	C1220.828735,749.415588 1224.438965,749.438171 1228.444824,749.438171
	C1229.677979,745.462463 1230.730835,742.068298 1232.078247,737.724060
	C1229.019409,737.389954 1226.559326,736.903503 1224.096191,736.888550
	C1211.097290,736.809875 1198.096802,736.931335 1185.098389,736.818237
	C1177.344482,736.750732 1175.025391,735.059387 1174.116699,729.488770
	C1173.054932,722.980469 1175.400513,718.251160 1181.660278,716.056702
	C1185.357178,714.760803 1189.441772,714.133179 1193.372681,714.035522
	C1201.361328,713.837036 1209.420288,714.857910 1217.346802,714.175110
	C1228.221069,713.238281 1239.018799,711.305176 1249.809937,709.556946
	C1254.688354,708.766541 1256.873291,704.744812 1258.410278,700.632996
	C1261.280884,692.954041 1267.080322,690.124390 1274.754639,690.088257
	C1282.085938,690.053711 1289.420288,690.200623 1296.748535,690.047363
	C1319.030273,689.581543 1337.738403,681.423645 1350.587646,662.820129
	C1355.483643,655.731445 1360.592163,652.864136 1369.304199,653.213379
	C1388.265625,653.973572 1407.277588,653.625793 1426.266357,653.453369
	C1431.567139,653.405212 1437.014160,652.974548 1442.105469,651.627808
	C1446.112549,650.567749 1450.048340,648.283508 1453.272217,645.637207
	C1454.792236,644.389587 1455.657715,640.533936 1454.858643,638.727661
	C1453.845703,636.438049 1451.074585,634.491333 1448.615723,633.414062
	C1446.653931,632.554504 1444.024536,633.207764 1441.691528,633.207458
	C1420.359131,633.204712 1399.026733,633.206604 1377.694336,633.204773
	C1375.361084,633.204590 1373.000366,633.415955 1370.700439,633.135376
	C1365.887817,632.548279 1364.097412,629.255859 1367.424561,625.615051
	C1373.444580,619.027283 1379.566406,611.983337 1387.036499,607.393616
	C1399.447266,599.768433 1412.489136,592.692749 1426.085449,587.557312
	C1486.261475,564.828613 1547.891968,559.974487 1610.460205,576.129456
	C1624.180908,579.672058 1637.359741,585.747803 1650.318237,591.682922
	C1662.811768,597.405090 1673.710938,605.723999 1682.577393,616.440491
	C1683.637817,617.722168 1684.852417,618.875305 1685.981201,620.101318
	C1705.188721,640.963318 1705.460083,639.676453 1729.715576,639.443054
	C1753.788940,639.211365 1777.465332,643.730408 1800.046997,652.513794
	C1811.280762,656.883240 1821.780518,662.730347 1829.984985,671.892395
	C1835.286011,677.811951 1842.158813,679.994690 1849.702515,679.984253
	C1860.692383,679.968933 1871.680176,679.380859 1882.671509,679.181335
	C1889.243896,679.061951 1895.471802,679.228638 1901.298584,683.810303
	C1907.255371,688.494263 1909.676514,693.179565 1907.582764,701.913269
	C1905.804321,709.330811 1903.033081,712.017334 1895.187134,712.169006
	C1873.224854,712.593689 1851.255737,712.657349 1829.290039,712.927551
	C1825.637573,712.972534 1821.950073,713.075806 1818.345947,713.608032
	C1807.838379,715.159973 1805.756226,717.856445 1806.113770,729.325134
	C1818.575806,734.090637 1831.571533,735.914307 1844.865234,733.326538
	C1854.234985,731.502502 1862.335449,732.711731 1870.266968,738.451843
	C1879.296631,744.986694 1889.980591,745.796265 1900.884766,745.049133
	C1911.848267,744.297852 1922.837524,743.677429 1933.820923,743.574707
	C1938.725708,743.528748 1943.772095,744.424622 1948.521118,745.736816
	C1953.681885,747.162781 1957.027832,751.108459 1957.777344,756.466919
	C1958.540771,761.924133 1954.901245,765.640381 1950.581421,767.369385
	C1943.575684,770.173340 1936.221069,773.034973 1928.810181,773.743896
	C1884.883667,777.945984 1840.934326,774.475708 1796.984253,773.428101
	C1746.026489,772.213318 1695.059448,771.209534 1644.090698,770.748413
	C1630.836304,770.628540 1617.450195,772.178467 1604.333862,774.272766
	C1595.588501,775.669128 1585.596436,777.338257 1579.031250,782.520081
	C1567.562988,791.571594 1558.963379,803.849426 1555.932007,818.916443
	C1555.146118,822.822205 1554.750000,826.806335 1553.994019,831.997498
	C1557.492676,832.115295 1560.620117,832.309631 1563.747681,832.312073
	C1593.746338,832.335205 1623.745117,832.322571 1653.743774,832.327454
	C1667.400879,832.329712 1669.906494,835.695312 1666.291260,849.258118
	C1665.873047,850.826965 1665.141968,852.312500 1664.344116,854.387695
	C1661.386963,854.543945 1658.474976,854.827759 1655.562744,854.831543
	C1628.897217,854.866089 1602.231812,854.837524 1575.566284,854.872131
	C1572.580688,854.875977 1569.522949,854.798706 1566.624512,855.383118
	C1560.054932,856.707642 1554.741089,859.545959 1554.060059,867.321106
	C1553.395142,874.913025 1551.830811,882.479492 1551.788208,890.063416
	C1551.610229,921.724365 1551.873657,953.387634 1551.921997,985.050110
	C1551.927124,988.374878 1551.802368,991.732239 1551.325195,995.014526
	C1550.974854,997.424500 1551.267700,1000.564209 1547.231934,1000.711182
	C1546.213013,1000.748291 1544.984741,1002.015747 1544.294067,1003.021240
	C1536.382080,1014.536499 1524.872803,1022.101807 1514.107300,1030.438599
	C1509.163696,1034.266968 1505.525513,1038.194458 1505.350464,1045.064209
	C1505.071899,1056.003296 1503.309814,1066.923950 1503.358154,1077.847168
	C1503.414795,1090.628296 1500.169189,1101.462280 1489.866821,1109.621216
	C1480.728638,1116.858276 1471.548218,1124.049194 1462.597778,1131.513916
	C1455.444824,1137.479492 1448.165771,1143.401245 1441.742920,1150.108765
	C1433.255981,1158.971924 1433.665283,1166.856323 1442.564941,1175.136597
	C1447.930786,1180.128784 1451.790161,1185.500244 1452.010864,1193.095581
	C1452.157837,1198.157104 1454.473633,1200.993042 1460.111938,1200.859863
	C1470.439087,1200.615723 1480.778076,1200.664307 1491.107910,1200.842896
	C1495.685547,1200.921997 1498.307129,1198.918823 1498.224854,1194.531738
	C1498.019775,1183.587646 1497.474609,1172.648438 1496.961670,1161.712158
	C1496.667969,1155.448853 1496.170776,1149.194946 1495.764771,1142.929077
	C1506.544678,1137.671875 1516.645752,1136.371826 1527.771118,1140.430664
	C1527.771118,1156.223755 1527.771118,1171.803223 1527.771118,1187.058960
	C1528.930054,1187.654541 1529.501099,1188.219604 1530.019287,1188.174805
	C1545.462036,1186.837891 1557.950439,1192.223145 1567.995483,1204.052368
	C1572.511230,1209.370239 1577.783813,1214.051514 1582.774780,1218.958740
	C1590.556396,1226.609863 1591.628662,1226.652222 1600.250854,1219.894409
	C1601.294678,1219.076172 1602.213135,1218.097778 1603.711548,1216.710815
	C1598.435669,1207.123901 1591.204712,1198.938354 1583.810059,1190.921875
	C1579.976196,1186.765625 1575.655518,1183.061035 1571.600586,1179.105469
	C1562.802856,1170.523315 1557.076294,1160.693970 1558.097412,1147.772949
	C1558.882568,1137.836304 1558.917969,1127.839478 1559.737671,1117.906616
	C1560.508911,1108.563721 1564.879883,1100.778076 1571.643311,1094.366821
	C1579.865845,1086.572876 1588.269897,1078.967407 1596.388306,1071.067505
	C1601.365234,1066.224487 1606.689941,1061.526855 1606.350464,1053.413330
	C1606.265259,1051.376587 1607.739624,1048.775269 1609.304199,1047.274902
	C1612.363159,1044.341187 1615.641724,1041.131836 1619.457031,1039.598511
	C1626.998413,1036.567627 1635.590332,1035.028564 1642.293579,1040.455078
	C1649.517212,1046.302979 1650.511597,1055.490112 1649.564087,1064.334229
	C1648.812866,1071.347290 1638.975586,1079.295898 1631.742065,1078.644165
	C1625.831909,1078.111694 1621.237305,1079.770874 1617.448975,1083.958740
	C1609.966187,1092.230347 1599.518555,1097.885498 1595.260498,1109.024780
	C1595.049316,1109.577393 1594.413086,1110.066284 1593.858032,1110.374023
	C1580.846924,1117.590088 1582.746582,1130.371338 1581.976196,1142.149902
	C1581.670532,1146.823364 1584.227295,1149.940918 1588.225098,1151.362549
	C1592.234009,1152.788330 1596.584351,1154.073242 1600.774048,1154.039551
	C1630.397339,1153.801758 1660.023804,1153.430786 1689.637939,1152.666138
	C1718.940918,1151.909302 1748.239746,1150.021973 1777.466797,1153.926880
	C1779.770996,1154.234741 1782.101074,1154.496338 1784.347900,1155.062134
	C1798.560547,1158.641479 1800.819336,1163.084473 1795.428101,1178.102051
	C1779.262695,1179.351562 1762.711792,1180.631470 1746.161011,1181.909912
	C1737.857300,1182.551270 1729.510010,1182.872925 1721.272095,1183.996094
	C1718.257324,1184.407227 1714.900024,1186.119507 1712.751099,1188.283203
	C1708.119507,1192.946045 1709.330444,1198.734131 1715.547729,1200.942505
	C1720.486206,1202.696655 1725.915649,1203.795166 1731.147705,1203.877563
	C1763.117554,1204.380981 1795.095337,1204.862671 1827.066284,1204.664795
	C1857.712524,1204.475220 1888.351074,1203.118530 1918.997437,1202.901489
	C1942.624268,1202.734131 1966.257935,1203.529419 1989.888184,1203.924561
	C1991.549561,1203.952271 1993.218628,1204.130371 1994.864624,1204.370850
	C2008.147217,1206.311523 2013.027222,1211.891846 2013.689697,1225.781128
	C2013.766479,1227.394165 2014.022949,1228.998657 2014.194336,1230.590332
	C2031.290161,1234.101196 2048.998535,1228.523071 2065.814697,1235.248535
	C2065.447998,1241.688354 2068.221924,1247.146973 2062.515137,1252.873901
	C2059.151123,1256.249878 2056.342773,1255.939087 2053.115234,1256.077515
	C2017.500000,1257.604736 1981.877075,1258.958008 1946.256348,1260.357178
	C1944.258423,1260.435669 1942.259521,1260.493530 1940.261719,1260.575073
	C1926.881104,1261.121582 1926.881104,1261.122803 1921.299072,1275.990112
	C1937.885498,1277.963379 1954.014160,1281.824097 1970.720337,1279.117676
	C1986.193970,1276.610840 1990.046631,1281.348145 1985.211182,1296.831543
	C1971.146118,1302.408447 1956.308960,1300.505981 1941.780029,1300.738525
	C1876.814331,1301.777954 1811.842285,1302.414429 1746.872803,1303.211914
	C1733.215942,1303.379517 1719.541260,1303.244751 1705.909912,1303.938721
	C1695.715454,1304.457642 1692.686890,1300.151001 1690.315430,1292.093018
	C1689.660034,1289.866455 1689.118896,1287.582886 1688.212158,1285.459106
	C1686.645142,1281.788818 1683.887451,1279.753784 1679.707153,1279.667480
	C1660.056641,1279.261353 1640.405884,1278.417114 1620.759521,1278.523438
	C1614.148682,1278.559204 1608.098267,1282.046021 1604.992310,1288.500122
	C1592.894409,1313.639038 1588.014648,1307.962769 1569.771729,1308.274780
	C1545.115234,1308.696533 1520.451172,1308.672852 1495.790527,1308.866943
	C1493.818604,1308.882446 1491.848145,1309.105225 1489.411743,1309.261475
	C1488.113525,1311.887817 1486.975464,1314.608521 1485.488403,1317.122681
	C1480.414795,1325.700317 1475.621826,1334.485352 1469.950195,1342.655640
	C1464.788452,1350.092041 1457.435669,1354.390991 1447.899170,1354.291992
	C1430.608765,1354.112671 1417.529907,1362.879028 1406.221924,1374.793091
	C1399.114990,1382.280640 1392.881104,1390.617432 1385.568726,1397.881958
	C1380.959717,1402.460815 1375.082520,1405.763062 1368.968018,1409.771973
M1528.262573,1244.167114
	C1517.982056,1243.472168 1507.684204,1242.010864 1497.424683,1242.242920
	C1476.495728,1242.716064 1455.585815,1244.066772 1434.672241,1245.136719
	C1429.748047,1245.388672 1426.582153,1247.822388 1426.089600,1253.050293
	C1425.584839,1258.407715 1428.236328,1263.050903 1433.390381,1264.552734
	C1436.852905,1265.561646 1440.576172,1266.196777 1444.170898,1266.146240
	C1468.097412,1265.809692 1492.021973,1265.304565 1515.943848,1264.711670
	C1522.475586,1264.549683 1528.994995,1263.898926 1535.479614,1263.475220
	C1535.959473,1259.989746 1536.314575,1257.360596 1536.684448,1254.733521
	C1537.705444,1247.479370 1537.707886,1247.479736 1528.262573,1244.167114
z"/>
<path fill="#FFFFFF" opacity="1.000000" stroke="none"
	d="
M781.999878,417.198914
	C691.357971,416.984375 601.716248,416.769806 512.074463,416.555481
	C510.741394,416.552277 509.404907,416.613525 508.075836,416.539764
	C502.179321,416.212341 499.908783,414.159882 499.729523,409.059662
	C499.538605,403.627869 502.191467,399.944672 507.643951,399.480225
	C515.931213,398.774323 524.268372,398.599884 532.588928,398.354309
	C540.581665,398.118378 548.580322,398.077789 556.576355,397.953705
	C571.528687,397.721710 586.122314,396.310699 600.955017,392.986603
	C617.301086,389.323364 634.632202,389.915222 651.552917,388.999176
	C666.173340,388.207672 680.873169,388.493805 695.437744,387.186737
	C706.540039,386.190430 709.741455,381.070923 708.828430,368.332001
	C704.328247,368.332001 699.723511,368.267609 695.121033,368.342682
	C669.141296,368.766266 643.161926,369.569458 617.182861,369.549896
	C599.207153,369.536377 581.229553,368.468506 563.259277,367.715942
	C559.619019,367.563507 555.939209,366.992004 552.398499,366.122009
	C545.990173,364.547394 542.155457,359.391724 542.211121,353.046753
	C542.267456,346.628662 545.116150,342.998627 552.144287,341.370270
	C555.995300,340.477997 560.028625,340.043030 563.985901,340.002197
	C574.646729,339.892242 585.311340,340.070679 595.973633,340.196991
	C611.828186,340.384796 625.353333,335.524170 635.405640,322.604858
	C639.084167,317.877106 643.200623,313.490143 647.114319,308.945160
	C677.001221,274.237061 715.200745,256.185699 760.595459,254.172104
	C782.507385,253.200134 804.528809,254.725800 826.501343,255.079849
	C847.483887,255.417969 868.466675,255.826706 889.450684,255.920914
	C894.405396,255.943146 899.412842,255.087418 904.312622,254.183517
	C914.509277,252.302475 917.788940,247.936615 917.787720,236.137482
	C891.976440,236.137482 866.152832,236.137482 838.579285,236.137482
	C840.738647,233.416916 841.651489,231.849091 842.940308,230.704666
	C870.419800,206.302658 902.867737,191.266418 937.818604,181.381073
	C1009.491089,161.109573 1081.593140,159.015274 1153.867188,178.058014
	C1181.781006,185.412720 1207.824097,197.070023 1230.828003,214.886459
	C1239.577148,221.662567 1247.449341,229.237656 1253.448853,238.654205
	C1255.769531,242.296738 1258.542236,245.649231 1261.065186,249.165283
	C1264.629395,254.132431 1269.261353,256.005127 1275.530640,256.256409
	C1297.487915,257.136444 1319.440430,258.396118 1341.352051,260.069763
	C1357.662476,261.315582 1373.609375,264.877502 1389.018799,270.438049
	C1409.066895,277.672546 1427.062744,288.345795 1441.015503,304.668640
	C1448.818359,313.797089 1458.264404,317.584747 1469.866333,317.464325
	C1478.860596,317.370972 1487.857300,317.502502 1496.852905,317.548615
	C1503.848755,317.584442 1510.851685,317.463043 1517.838989,317.733002
	C1528.442017,318.142639 1530.642334,319.672607 1530.924072,326.066528
	C1531.350952,335.750885 1524.661865,345.713440 1516.785889,345.958527
	C1503.141846,346.383057 1489.473511,345.956696 1475.822632,346.238342
	C1455.526855,346.657074 1435.236450,347.349792 1414.946533,348.014069
	C1412.300049,348.100708 1409.634644,348.544983 1407.040283,349.109772
	C1400.532471,350.526459 1398.813354,352.948120 1399.324341,359.555298
	C1399.835571,366.167023 1401.864990,368.244324 1408.628662,368.296478
	C1422.958374,368.407074 1437.298462,368.627808 1451.616089,368.198456
	C1458.197876,368.001068 1463.444214,369.690155 1467.373535,374.862335
	C1476.239136,386.532379 1488.265259,390.663513 1502.454590,390.179932
	C1520.097412,389.578705 1537.745239,388.916138 1555.394775,388.781708
	C1568.686157,388.680420 1581.987671,389.262604 1595.274902,389.787933
	C1598.206543,389.903809 1601.155151,390.880341 1603.992920,391.783844
	C1608.564209,393.239227 1612.876343,395.401947 1613.743042,400.703583
	C1614.691284,406.503540 1611.690186,411.258881 1607.698853,414.789429
	C1605.834717,416.438568 1602.156860,416.452148 1599.291138,416.492279
	C1556.650757,417.089630 1514.008789,417.569885 1471.367188,418.072510
	C1382.751221,419.117035 1294.135498,420.173309 1205.519165,421.182922
	C1193.929688,421.315002 1182.337402,421.201050 1169.758423,421.201050
	C1170.128174,426.709686 1170.405518,430.842743 1170.762085,436.157013
	C1162.266235,437.429779 1154.145508,438.639618 1146.027222,439.864716
	C1139.449463,440.857330 1132.711182,441.260071 1126.326294,442.975220
	C1096.880249,450.885437 1081.851196,471.770844 1076.267334,500.445374
	C1074.814575,507.905792 1074.603516,515.666443 1074.438599,523.302429
	C1074.279663,530.664429 1075.394653,531.935181 1082.848145,532.920776
	C1089.098145,533.747314 1095.486328,533.470520 1101.777954,534.060120
	C1106.051514,534.460632 1110.493896,534.906616 1114.454224,536.406189
	C1122.000732,539.263672 1124.301270,549.840271 1118.834595,555.658752
	C1117.653442,556.916016 1115.330322,557.596313 1113.497803,557.670776
	C1089.220703,558.657471 1064.937622,559.502686 1040.654419,560.331665
	C1038.666138,560.399536 1036.657104,560.164612 1034.671387,559.945984
	C1023.600037,558.727051 1020.536926,554.565979 1020.260803,543.721313
	C1019.991882,533.157532 1019.588257,522.349121 1017.179810,512.134827
	C1010.179260,482.445251 990.737549,467.963837 960.128113,468.174469
	C953.136719,468.222565 946.131653,468.393738 939.158142,468.027283
	C935.566162,467.838531 931.870605,467.009918 928.504944,465.727417
	C923.149902,463.686798 920.640259,459.470276 921.338196,455.021332
	C922.003296,450.781677 926.975159,446.563049 932.049072,446.098816
	C934.032471,445.917328 936.045532,446.057678 938.045105,446.057556
	C955.708313,446.056519 973.371582,446.056793 991.034790,446.056702
	C993.966858,446.056702 996.898926,446.056732 999.748901,446.056732
	C1000.751770,430.363831 995.732544,423.819275 981.719116,421.847809
	C976.118225,421.059845 970.472839,420.256195 964.832825,420.130981
	C923.544312,419.214508 882.253052,418.401825 840.960266,417.698486
	C821.642944,417.369446 802.320190,417.355621 781.999878,417.198914
z"/>
<path fill="#FFFFFF" opacity="1.000000" stroke="none"
	d="
M1022.361145,907.396606
	C1021.856018,817.211060 1021.388367,727.969116 1020.917236,638.076599
	C1037.947266,638.076599 1054.385864,638.076599 1071.828735,638.076599
	C1071.828735,641.516663 1071.831787,644.755188 1071.828369,647.993774
	C1071.780518,692.648743 1071.962524,737.305542 1071.614502,781.958191
	C1071.302979,821.930420 1070.501465,861.899963 1069.709229,901.866577
	C1069.484985,913.179382 1068.278931,924.471008 1067.974365,935.784485
	C1067.452026,955.192993 1074.083496,971.629639 1089.018188,984.469849
	C1094.574341,989.246826 1099.724121,994.501892 1105.343018,999.199585
	C1115.990479,1008.101562 1120.713013,1019.588196 1121.884033,1033.188965
	C1123.967041,1057.380981 1125.530151,1059.297485 1148.498169,1066.926636
	C1159.141968,1070.462158 1170.027466,1073.270386 1182.561035,1076.920044
	C1182.561035,1065.131836 1182.438721,1054.860107 1182.590332,1044.592651
	C1182.806396,1029.950073 1183.202637,1015.309937 1183.562012,1000.669739
	C1183.807983,990.657959 1188.228149,982.776184 1196.095215,976.770203
	C1205.889160,969.293274 1215.655518,961.775574 1225.592529,954.492004
	C1233.500977,948.695312 1238.460938,941.831116 1239.181641,931.395081
	C1239.981934,919.805847 1249.918091,911.759277 1260.666016,912.110046
	C1271.387329,912.460022 1281.161987,922.448486 1281.809204,933.716125
	C1282.409424,944.166809 1274.029053,954.314941 1262.901611,956.028931
	C1259.009888,956.628418 1254.947998,956.124512 1251.486816,956.124512
	C1240.724976,965.344910 1230.559082,974.458740 1219.945923,983.018066
	C1211.638672,989.717712 1206.882812,997.913269 1206.580688,1008.588379
	C1206.250854,1020.240051 1205.836914,1031.892822 1205.759766,1043.547119
	C1205.664917,1057.873535 1205.635864,1072.209351 1206.062012,1086.526611
	C1206.286743,1094.073486 1203.948975,1100.138062 1198.585693,1105.287354
	C1186.095703,1117.279297 1173.668701,1129.337036 1161.209473,1141.361206
	C1154.976685,1147.376343 1148.809448,1153.462769 1142.457153,1159.348999
	C1139.036621,1162.518433 1137.812866,1166.133179 1137.738770,1170.810913
	C1137.253174,1201.452515 1136.296997,1232.087646 1135.972046,1262.729980
	C1135.896362,1269.871338 1134.292603,1275.801270 1129.153320,1280.680908
	C1117.088501,1292.136353 1105.016357,1303.584595 1092.901489,1314.987061
	C1085.220581,1322.216309 1077.061157,1322.203491 1067.924194,1316.194092
	C1067.924194,1305.395386 1067.891113,1294.437012 1067.930542,1283.478882
	C1068.043091,1252.154785 1068.033081,1220.828613 1068.445801,1189.508179
	C1068.526855,1183.357422 1066.969360,1178.461182 1062.641235,1174.312988
	C1053.986328,1166.017700 1045.424805,1157.621216 1036.639282,1149.466431
	C1013.175598,1127.687256 1012.816284,1126.831055 1013.825195,1094.863403
	C1014.634277,1069.227051 1015.000916,1043.608032 1012.177734,1018.026489
	C1011.016235,1007.502808 1008.407410,998.072998 1000.943237,989.947815
	C991.712341,979.899475 983.196472,969.180359 974.622681,958.548584
	C970.614990,953.578857 965.811462,950.904297 959.476013,950.023254
	C946.522339,948.221863 939.734131,941.251282 939.655518,930.424805
	C939.573914,919.184937 948.687134,908.228516 959.754333,906.260986
	C971.119446,904.240479 983.441589,912.829712 983.411926,924.893005
	C983.382141,937.006714 989.255981,945.047913 996.972290,952.610229
	C1005.536560,961.003601 1014.243713,969.273499 1023.237549,977.201355
	C1038.349609,990.522217 1050.693604,1006.176331 1062.585083,1022.285034
	C1067.640991,1029.133789 1070.890259,1036.517700 1072.199097,1044.975464
	C1073.462646,1053.141724 1075.457642,1061.194824 1077.149658,1069.385986
	C1084.464355,1069.385986 1090.988892,1069.385986 1098.889893,1069.385986
	C1099.293823,1062.992676 1099.937500,1057.157349 1099.979736,1051.317871
	C1100.104004,1034.169434 1094.450195,1019.887329 1081.269775,1007.955750
	C1065.000488,993.227905 1049.982056,977.119812 1034.393921,961.637451
	C1028.685425,955.967834 1026.076660,949.348755 1025.753052,941.133911
	C1025.321289,930.175598 1023.578430,919.268982 1022.361145,907.396606
M1093.789185,1145.997314
	C1093.789185,1171.662354 1093.710693,1197.328003 1093.908325,1222.991455
	C1093.928589,1225.610474 1095.067383,1229.981201 1096.626953,1230.456787
	C1099.742065,1231.406372 1103.711426,1230.793823 1106.922363,1229.668823
	C1108.537598,1229.103027 1109.909180,1226.111938 1110.264282,1224.025757
	C1111.098145,1219.127686 1111.600220,1214.115967 1111.625732,1209.147095
	C1111.753296,1184.280640 1111.684204,1159.413208 1111.684204,1134.807739
	C1124.124756,1126.424316 1128.433838,1117.553345 1125.338135,1107.239258
	C1122.518555,1097.844971 1113.830200,1091.935669 1103.071045,1092.094238
	C1092.267944,1092.253540 1084.497437,1097.703613 1082.736572,1107.672974
	C1081.907227,1112.368408 1082.650513,1117.580200 1083.730469,1122.318848
	C1085.361328,1129.474121 1091.786743,1132.285889 1097.546631,1134.731323
	C1096.131470,1138.314331 1094.961914,1141.275391 1093.789185,1145.997314
z"/>
<path fill="#FFFFFF" opacity="1.000000" stroke="none"
	d="
M481.709595,1367.988403
	C461.454285,1367.895752 442.156158,1368.107300 422.882874,1367.513306
	C418.233612,1367.369995 413.345306,1365.119385 409.198303,1362.738281
	C407.152771,1361.564087 405.161713,1357.547852 405.675018,1355.430664
	C406.196533,1353.279785 409.663513,1351.562012 412.159088,1350.269409
	C413.831787,1349.402832 416.051971,1349.463989 418.040436,1349.357544
	C428.010895,1348.823242 437.983948,1348.004272 447.959290,1347.957275
	C479.929382,1347.806885 511.915771,1347.467896 543.738098,1351.555176
	C547.680176,1352.061523 551.721436,1351.906982 555.715088,1351.872070
	C560.323547,1351.831787 562.129700,1354.858887 563.176086,1358.563965
	C564.382690,1362.836548 561.471252,1364.798340 558.152710,1365.818481
	C554.376221,1366.979614 550.445068,1367.804810 546.520996,1368.290649
	C525.235413,1370.925903 503.955902,1368.789429 481.709595,1367.988403
z"/>
<path fill="#FFFFFF" opacity="1.000000" stroke="none"
	d="
M1656.452148,1353.706299
	C1653.515381,1353.704102 1651.502319,1353.858276 1649.521362,1353.670898
	C1643.136475,1353.066895 1639.385742,1344.919067 1643.052002,1339.511841
	C1643.718750,1338.528442 1645.023682,1337.698608 1646.188354,1337.400269
	C1647.764038,1336.996582 1649.488892,1337.113892 1651.149658,1337.113037
	C1679.127075,1337.100464 1707.104736,1337.046631 1735.081787,1337.140259
	C1743.200562,1337.167480 1746.481079,1341.477661 1743.893066,1348.277222
	C1742.594604,1351.688721 1740.155762,1353.697388 1736.326294,1353.681030
	C1733.662109,1353.669678 1730.997559,1353.704834 1728.333252,1353.705078
	C1704.685669,1353.707275 1681.038208,1353.706299 1656.452148,1353.706299
z"/>
<path fill="#FFFFFF" opacity="1.000000" stroke="none"
	d="
M1048.233887,592.660767
	C1053.819580,592.391235 1058.480469,591.917114 1063.106201,592.147522
	C1070.079590,592.494751 1073.321533,595.645447 1073.677979,601.632080
	C1074.067261,608.169861 1070.181396,613.627441 1064.070679,614.753845
	C1061.141113,615.293945 1058.126831,615.586853 1055.147949,615.609985
	C1041.855225,615.713318 1028.560547,615.775757 1015.269165,615.625549
	C1011.988098,615.588501 1008.576294,615.124084 1005.473389,614.101318
	C1000.659119,612.514282 997.340271,606.678406 998.151550,602.309631
	C998.897400,598.293152 1003.183350,595.117981 1008.474365,594.824768
	C1021.412231,594.107910 1034.353394,593.451904 1048.233887,592.660767
z"/>
<path fill="#FFFFFF" opacity="1.000000" stroke="none"
	d="
M1224.816162,1413.186768
	C1221.307495,1412.795288 1218.578735,1412.769165 1216.055542,1412.036011
	C1210.028564,1410.284912 1207.003296,1404.783325 1207.919067,1397.882935
	C1208.713135,1391.899780 1212.109497,1388.265747 1218.488037,1388.104004
	C1232.441406,1387.750244 1246.407471,1387.906372 1260.368408,1387.840454
	C1264.141479,1387.822632 1267.780151,1388.044800 1269.540405,1392.215088
	C1271.255005,1396.277466 1269.963379,1403.058472 1266.203125,1405.929565
	C1263.659302,1407.871826 1260.441772,1409.600708 1257.336670,1410.017456
	C1246.833008,1411.426880 1236.245117,1412.208862 1224.816162,1413.186768
z"/>
<path fill="#FFFFFF" opacity="1.000000" stroke="none"
	d="
M446.711792,946.182495
	C459.249939,946.087585 470.890411,945.620667 482.475159,946.223938
	C486.345337,946.425415 490.765381,948.629395 493.612946,951.317505
	C495.394897,952.999634 495.776276,957.699585 494.790863,960.284973
	C494.027527,962.287720 490.245270,964.103394 487.677887,964.294495
	C473.793030,965.328369 459.873901,966.124268 445.955292,966.375977
	C440.095734,966.481934 434.071350,965.569458 428.400024,964.068787
	C426.079163,963.454651 423.120392,960.150269 422.970947,957.902161
	C422.828705,955.763000 425.514099,952.262573 427.757263,951.367004
	C433.532318,949.061401 439.750946,947.866821 446.711792,946.182495
z"/>
<path fill="#FFFFFF" opacity="1.000000" stroke="none"
	d="
M904.729553,1366.970703
	C907.546265,1367.434326 910.286987,1367.115234 911.299377,1368.288086
	C913.267212,1370.567871 915.094299,1373.583008 915.450562,1376.481445
	C915.874939,1379.935059 913.856079,1383.020630 909.767944,1383.340698
	C891.562744,1384.765747 873.382629,1384.983765 854.668213,1382.795288
	C854.668213,1377.547485 854.668213,1373.325317 854.668213,1368.231689
	C870.810547,1367.782349 887.341553,1367.322144 904.729553,1366.970703
z"/>
<path fill="#FFFFFF" opacity="1.000000" stroke="none"
	d="
M1637.003662,949.125366
	C1636.928223,960.779724 1635.696045,962.591248 1625.801758,962.910095
	C1615.549805,963.240417 1605.249756,963.066345 1595.010010,962.454712
	C1587.506348,962.006470 1584.857056,955.667725 1589.811523,950.037292
	C1592.293579,947.216675 1596.092773,944.152527 1599.534058,943.842957
	C1609.660156,942.932251 1619.918457,943.035095 1630.093140,943.475586
	C1632.366455,943.573975 1634.509888,946.673889 1637.003662,949.125366
z"/>
<path fill="#FFFFFF" opacity="1.000000" stroke="none"
	d="
M2024.720947,767.892883
	C2014.910278,767.701599 2005.929688,767.840271 1997.046753,766.976624
	C1993.302490,766.612549 1989.302124,764.753235 1986.241211,762.470093
	C1981.754761,759.123352 1982.546265,753.072510 1987.575195,751.628845
	C2002.432007,747.363892 2017.555298,746.266479 2032.805786,749.552673
	C2033.701416,749.745667 2034.463501,750.558899 2035.196533,751.025452
	C2036.109497,761.574097 2034.952515,763.572144 2024.720947,767.892883
z"/>
<path fill="#FFFFFF" opacity="1.000000" stroke="none"
	d="
M475.339783,797.900269
	C483.294739,799.204651 484.396423,800.353943 484.326355,806.303223
	C484.257843,812.116272 481.961884,815.611877 476.503723,815.826172
	C463.933746,816.319763 451.337372,816.159180 438.751495,816.220154
	C433.896149,816.243713 431.316742,813.173523 430.820679,808.911560
	C430.425964,805.520264 431.337341,801.976929 431.726227,797.899902
	C446.624268,797.899902 460.515991,797.899902 475.339783,797.900269
z"/>
<path fill="#FFFFFF" opacity="1.000000" stroke="none"
	d="
M816.886780,1533.577148
	C814.736023,1522.577271 816.577454,1520.100098 826.361023,1520.032104
	C837.941589,1519.951660 849.523071,1520.013306 861.727966,1520.013306
	C861.948120,1523.595215 862.218445,1526.469727 862.278564,1529.348755
	C862.357178,1533.113647 860.533630,1536.069458 856.950623,1536.848633
	C843.546448,1539.763916 830.113159,1541.697510 816.886780,1533.577148
z"/>
<path fill="#FFFFFF" opacity="1.000000" stroke="none"
	d="
M1655.042603,401.405579
	C1663.170898,402.328644 1670.410156,403.148071 1677.544800,403.955627
	C1680.438110,414.669373 1678.335938,417.814972 1668.306030,417.864777
	C1655.403809,417.928864 1642.500977,417.880402 1629.820190,417.880402
	C1627.089844,406.849854 1629.489990,402.497589 1639.305176,401.158478
	C1644.157837,400.496368 1649.198242,401.210480 1655.042603,401.405579
z"/>
<path fill="#FFFFFF" opacity="1.000000" stroke="none"
	d="
M1596.368408,1352.163330
	C1588.856323,1352.204590 1582.189575,1352.375000 1575.548828,1352.037109
	C1572.631226,1351.888550 1569.445190,1351.255127 1566.979980,1349.815918
	C1565.035034,1348.680176 1562.407837,1345.343628 1562.900269,1344.096069
	C1563.960815,1341.409058 1566.755127,1337.573608 1568.979736,1337.478516
	C1582.616211,1336.895508 1596.297363,1337.042847 1609.948486,1337.451172
	C1611.973145,1337.511841 1615.538696,1340.245850 1615.532227,1341.730469
	C1615.521484,1344.150635 1613.699829,1347.858398 1611.671265,1348.709961
	C1607.175903,1350.597534 1602.077148,1351.048950 1596.368408,1352.163330
z"/>
<path fill="#FFFFFF" opacity="1.000000" stroke="none"
	d="
M332.817810,956.421753
	C333.515503,951.597351 336.416840,949.996643 339.959320,950.055725
	C351.828674,950.253784 363.703949,950.561157 375.553131,951.242004
	C379.551758,951.471741 383.948944,952.915161 383.214661,958.283325
	C382.534546,963.255554 379.122986,965.097595 373.951813,965.062439
	C363.370117,964.990540 352.782715,965.788513 342.200623,965.726501
	C334.920746,965.683777 334.920837,965.304504 332.817810,956.421753
z"/>
<path fill="#FFFFFF" opacity="1.000000" stroke="none"
	d="
M1679.300903,909.943115
	C1687.806641,909.898987 1695.432129,909.997559 1703.053223,909.853760
	C1706.757080,909.783813 1709.758179,910.464172 1710.343018,914.704163
	C1710.934937,918.996948 1711.510620,923.384644 1706.853516,926.127319
	C1700.548218,929.840393 1681.201538,928.447327 1675.149658,923.788208
	C1671.811157,921.218079 1670.423584,918.134644 1673.505127,914.498169
	C1674.931641,912.814941 1676.768311,911.479370 1679.300903,909.943115
z"/>
<path fill="#FFFFFF" opacity="1.000000" stroke="none"
	d="
M1308.334106,658.088989
	C1307.227173,661.049011 1306.466675,664.064880 1304.569702,665.228882
	C1297.997192,669.262207 1290.668945,669.550842 1283.402588,667.296326
	C1279.693237,666.145325 1276.871460,663.509888 1277.277222,659.216431
	C1277.665405,655.109436 1281.027344,653.871033 1284.505615,653.729248
	C1292.591431,653.399780 1301.050781,651.018555 1308.334106,658.088989
z"/>
</svg>