<svg fill="none" height="221" viewBox="0 0 267 221" width="267" xmlns="http://www.w3.org/2000/svg"><path clip-rule="evenodd" d="m109.372 10.1922c.196.0016.38-.0888.504-.2409 4.567-5.59518 13.448-9.391241 23.655-9.391241 10.132 0 18.957 3.740491 23.553 9.268241.125.15027.309.2385.505.2378.606-.0021 1.212-.0055 1.818-.009.969-.0055 1.938-.0111 2.906-.0111 7.093 0 13.126 3.7598 15.357 9.0058.104.2451.341.4101.607.4099 2.197-.0017 4.394-.0155 6.59-.0293 2.34-.0148 4.678-.0295 7.012-.0295 5.654 0 10.352 3.3912 11.295 7.8534.066.3136.335.5509.655.5508 2.577-.0004 5.154-.0037 7.731-.007h.001.001c2.763-.0036 5.525-.0071 8.287-.0071 3.631 0 6.574 2.4392 6.574 5.4481s-2.943 5.4481-6.574 5.4481c-26.845 0-53.691.0011-80.537.0023-2.713.0001-4.89 2.2396-4.814 4.9515l1.548 55.3625c.071 2.5415 2.108 4.5735 4.64 4.8045 11.324 1.036 20.87 4.39 26.284 8.962.16.135.358.209.565.209.903-.002 1.806-.006 2.709-.009h.014c1.386-.006 2.772-.011 4.158-.011 3.57 0 6.953.465 9.977 1.297 4.173 1.149 10.343-1.967 10.343-6.296v-21.1729c0-2.6604-2.156-4.817-4.816-4.8169-12.313.0005-25.305.001-41.094.001-2.604 0-4.716-1.3541-4.716-3.0243 0-1.6703 2.112-3.0243 4.716-3.0243 1.994 0 3.94.0041 5.886.0082h.001.011c2.008.0042 3.659-1.538 4.807-3.1867 2.054-2.9519 6.132-4.963 10.827-4.963h4.908c1.559 0 2.964-.8624 4.209-1.801 10.427-7.8623 26.454-7.4529 34.213-.3523.191.1755.475.2813.774.2803.356-.0011.712-.0027 1.068-.0043.703-.0031 1.405-.0062 2.108-.0062 4.999 0 9.272 1.9934 10.992 4.8085.172.2807.532.4745.938.474 1.475-.0018 2.949-.009 4.423-.0161 1.696-.0083 3.392-.0166 5.084-.0166 3.92 0 7.207 1.7399 8.085 4.0813.134.3572.542.6341 1.03.634 1.394-.0005 2.054-.0022 2.715-.0039.783-.002 1.566-.004 3.569-.004 2.632 0 4.766 1.3686 4.766 3.0568s-2.134 3.0568-4.766 3.0568c-18.557 0-33.251.0005-47.518.0011-2.661.0001-4.817 2.1567-4.817 4.8169v31.0376c0 2.504 2.035 4.532 4.54 4.521h.002c3.346-.015 6.691-.03 10.029-.03 7.991 0 14.647 3.311 16.107 7.693.135.407.487.712.902.712 5.503-.001 11.006.015 16.509.031 3.603.01 7.205.02 10.808.026 2.982.005 5.399 2.422 5.399 5.404 0 2.981-2.417 5.399-5.399 5.399h-118.847c-2.713 0-4.89 2.239-4.815 4.951l1.306 46.71c.186 6.653 4.457 12.501 10.738 14.703l25.901 9.082c1.705.598 1.275 3.12-.532 3.12h-86.3909c-1.8205 0-2.2358-2.551-.5092-3.128l27.2591-9.115c6.475-2.165 10.873-8.189 10.963-15.016l.611-46.427c.036-2.685-2.131-4.88-4.816-4.88h-115.80952c-2.98188 0-5.399168-2.421-5.399168-5.403 0-2.981 2.417298-5.396 5.399178-5.396h26.01111c.6056 0 1.3205-.102 1.4887-.683 1.3003-4.497 8.0488-7.923 16.1786-7.923 1.3507 0 2.8777.001 4.5103.001 2.6551.002 4.8112-2.145 4.8202-4.8l.124-36.4443c.0091-2.6666-2.1496-4.8332-4.8162-4.8333-10.9001-.0004-22.5231-.0007-36.2641-.0007-2.6323 0-4.7662-1.3685-4.7662-3.0567s2.1339-3.0568 4.7662-3.0568c2.0032 0 2.7862.002 3.5692.004h.0049c.659.0017 1.3198.0034 2.7098.0039.4882.0001.8962-.2768 1.0302-.634.878-2.3414 4.1646-4.0813 8.0848-4.0813 1.6924 0 3.3877.0083 5.0843.0166 1.4736.0071 2.9481.0143 4.4223.0161.4069.0005.7665-.1933.9381-.474 1.7203-2.8151 5.9936-4.8085 10.9929-4.8085.7023 0 1.4048.0031 2.1072.0062h.0001.0001c.3559.0016.7118.0032 1.0676.0043.3.001.5831-.1048.7749-.2803 7.7588-7.1006 23.786-7.51 34.2125.3523 1.2446.9386 2.6501 1.8009 4.2089 1.8009h4.9081c4.695 0 8.773 2.0112 10.828 4.9631 1.147 1.6487 2.798 3.1909 4.806 3.1867h.011.001c1.946-.0041 3.892-.0082 5.886-.0082 1.612 0 3.948-1.2819 3.969-2.8936l.095-7.209v-16.4424c0-2.6603-2.156-4.8169-4.817-4.8168-25.2763.0011-50.553.002-75.8296.002-3.5917 0-6.5034-2.4133-6.5034-5.3902 0-2.977 2.9117-5.3903 6.5034-5.3903 2.7561 0 5.5137.0074 8.2715.0147 2.5651.0068 5.1305.0136 7.695.0145.3291.0002.6022-.2495.6598-.5735.8156-4.5866 5.5841-8.1069 11.3445-8.1069 2.351 0 4.7022.003 7.0535.006h.0002.0001.0001.0002.0046c2.2081.0028 4.4162.0056 6.6242.0059.2623 0 .4967-.1602.6033-.3999 2.2899-5.1532 8.2667-8.8285 15.2786-8.8285.812 0 1.62.0368 2.428.0735.73.0332 1.461.0665 2.196.0727zm14.423 65.9103c1.578 0 3.835 1.2967 3.814 2.8741l-.267 20.2911c-.033 2.5003-1.977 4.5423-4.457 4.8653-10.138 1.319-18.592 4.526-23.5148 8.76-.1604.139-.3624.215-.571.214-.8753-.005-.9462-.038-1.0179-.071-.0795-.038-.1599-.075-1.337-.075-10.0081 0-18.5415 3.658-21.8343 8.792-.1708.266-.4519.436-.7607.436-.8283 0-1.7161 0-2.6483-.001-2.6033-.001-4.7345-2.071-4.812-4.673l-1.0863-36.4536c-.0809-2.7153 2.0984-4.9604 4.8149-4.9603h.8534c15.9806.0007 31.961.0014 52.824.0014z" fill="#f3f6ff" fill-rule="evenodd"/></svg>