<svg version="1.1" id="Layer_1" xmlns="http://www.w3.org/2000/svg" xmlns:xlink="http://www.w3.org/1999/xlink" x="0px" y="0px"
	 width="100%" viewBox="0 0 2134 2134" enable-background="new 0 0 2134 2134" xml:space="preserve">
<path fill="#F1F4FD" opacity="1.000000" stroke="none"
	d="
M2136.000000,1403.064819
	C2135.001953,1403.939453 2133.418701,1403.457886 2133.106934,1403.891235
	C2131.758545,1405.764160 2130.917236,1407.993164 2129.648926,1409.933960
	C2121.674805,1422.135498 2110.532471,1429.197144 2095.878174,1430.264893
	C2091.564941,1430.578979 2087.218506,1430.495850 2082.887451,1430.495972
	C1771.586060,1430.505127 1460.284668,1430.504150 1148.983276,1430.505249
	C1145.650391,1430.505249 1142.313354,1430.419434 1138.985107,1430.548096
	C1116.337891,1431.423584 1100.139404,1447.819824 1100.361328,1470.504272
	C1100.589600,1493.828247 1101.553955,1517.145508 1102.215454,1540.465088
	C1105.079224,1641.406250 1107.839355,1742.350342 1110.871704,1843.286499
	C1112.130005,1885.168091 1129.672119,1918.975952 1162.946533,1944.493530
	C1174.427734,1953.298096 1187.384888,1959.295654 1201.003906,1964.057983
	C1266.997314,1987.134277 1332.957397,2010.306030 1398.926880,2033.450317
	C1401.438721,2034.331543 1404.051025,2035.038940 1406.400146,2036.247681
	C1411.576050,2038.911255 1414.273315,2044.221191 1413.430298,2049.426270
	C1412.468628,2055.365234 1408.256226,2059.570068 1402.076538,2060.284180
	C1398.781982,2060.664795 1395.421143,2060.530029 1392.090210,2060.530029
	C1166.446655,2060.539062 940.803162,2060.539551 715.159668,2060.526855
	C711.830505,2060.526611 708.460754,2060.645508 705.181091,2060.193115
	C699.507141,2059.410400 695.449768,2055.286865 694.432007,2049.852539
	C693.441895,2044.565430 695.954224,2039.163208 701.034546,2036.456055
	C703.359070,2035.217407 705.983887,2034.520630 708.505615,2033.677124
	C778.282532,2010.336548 848.054626,1986.981323 917.847351,1963.688232
	C962.105042,1948.917114 991.816223,1919.711792 1004.827820,1874.710693
	C1008.022339,1863.662231 1009.557617,1851.791748 1009.736145,1840.266357
	C1011.609497,1719.302734 1012.802063,1598.328369 1014.846191,1477.368164
	C1015.209778,1455.854980 1009.058960,1439.529175 981.410461,1427.534302
	C980.190796,1427.005005 978.906006,1426.620117 977.639404,1426.205444
	C959.532104,1420.276245 951.067444,1407.047852 949.782349,1388.741577
	C948.498657,1370.455322 952.879395,1352.971436 958.642517,1335.869385
	C969.518982,1303.593140 983.915955,1272.773315 1000.744812,1243.286255
	C1029.127075,1193.555908 1058.817749,1144.574097 1087.605957,1095.072632
	C1095.793213,1080.994629 1102.945435,1066.299072 1110.188599,1051.696411
	C1112.681763,1046.670044 1114.532104,1041.181763 1115.756836,1035.699341
	C1118.278931,1024.408203 1113.517334,1019.934326 1102.101196,1022.670959
	C1097.931519,1023.670593 1093.704590,1025.119507 1089.993896,1027.226685
	C1073.516724,1036.583496 1056.774536,1045.576660 1040.935547,1055.935547
	C990.768677,1088.745117 943.266724,1125.273438 895.612183,1161.566040
	C799.706970,1234.605103 702.951904,1306.436646 599.541260,1368.733643
	C565.270386,1389.379272 530.055054,1408.174927 491.881805,1420.847656
	C473.393219,1426.985352 454.472351,1430.443237 435.009674,1430.453125
	C306.689545,1430.518311 178.369370,1430.463379 50.049229,1430.532471
	C29.192951,1430.543579 14.327118,1421.682739 6.038139,1402.275269
	C5.452292,1400.903442 4.099523,1399.859253 2.551674,1399.331299
	C2.000000,1391.286255 2.000000,1382.572388 2.000000,1372.929321
	C7.109475,1374.138794 6.917854,1369.233887 8.207461,1366.964600
	C14.647526,1355.631836 23.958164,1347.998779 36.634811,1345.093628
	C41.750404,1343.921265 47.206448,1343.927002 52.508137,1343.921021
	C116.838486,1343.848389 181.168945,1343.873779 245.499374,1343.873291
	C248.165924,1343.873291 250.836990,1343.767090 253.498154,1343.885620
	C261.291748,1344.232422 266.378967,1341.750000 269.321381,1333.518555
	C274.578857,1318.811157 285.909210,1308.761230 298.697052,1300.469604
	C319.806915,1286.782471 343.340363,1279.796997 368.068146,1276.789307
	C378.957001,1275.464844 389.992432,1275.187012 400.974182,1274.832397
	C410.630371,1274.520630 420.305176,1274.836426 429.970642,1274.749146
	C456.575714,1274.509033 472.023224,1259.051025 472.124634,1232.236450
	C472.423401,1153.242188 472.601166,1074.247559 472.823334,995.253113
	C472.867401,979.587585 472.165192,963.877869 473.105042,948.266663
	C474.564789,924.019287 456.324554,904.982788 430.340057,905.141541
	C337.347717,905.709595 244.349808,905.375732 151.354034,905.324585
	C145.701233,905.321472 139.988159,905.224304 134.414993,904.407593
	C129.862503,903.740356 125.252083,902.428162 121.064972,900.526428
	C112.524132,896.647461 105.329567,891.054077 105.439575,880.556458
	C105.549416,870.074585 112.781677,864.159790 121.451340,860.891663
	C128.475021,858.243958 136.239319,856.741150 143.752884,856.388672
	C158.052521,855.718018 172.422684,855.845032 186.734207,856.398987
	C195.342758,856.732239 201.042480,854.646667 204.893051,846.089233
	C208.823090,837.355042 216.987701,832.092407 225.438095,827.782837
	C238.800125,820.968506 253.153503,818.419922 267.989532,818.394653
	C290.653931,818.356018 313.323212,818.298523 335.980804,818.741394
	C343.930359,818.896790 349.495270,817.005554 354.526245,810.071838
	C365.099274,795.499939 380.618774,787.170105 397.582550,782.664246
	C410.349060,779.273193 423.745636,778.124268 436.924042,776.475098
	C442.503357,775.776855 448.271362,775.987854 453.902222,776.434204
	C463.360687,777.183899 470.733459,774.278809 478.356659,768.130859
	C505.063080,746.592712 536.627869,736.210632 570.281677,732.511353
	C634.773804,725.422302 694.152100,739.231140 746.853577,778.098022
	C759.378723,787.335388 772.741577,792.644592 788.624023,791.602539
	C799.243835,790.905823 809.948425,791.405212 820.613525,791.516846
	C835.415222,791.671814 849.747864,794.332397 863.556030,799.775269
	C880.693848,806.530640 895.022339,816.851501 906.072144,831.792725
	C910.200562,837.375061 915.016479,842.583252 920.173279,847.237061
	C926.753723,853.175598 934.700439,856.750916 943.794739,856.689514
	C958.773071,856.588379 973.753906,856.420105 988.726135,856.007385
	C1000.538147,855.681824 1010.660095,850.867432 1019.479919,843.215820
	C1024.018921,839.278015 1026.043579,834.706299 1025.118164,828.210571
	C1023.902588,819.677979 1023.782532,810.941406 1023.777832,802.292236
	C1023.750183,750.961914 1023.938538,699.631470 1023.902466,648.301208
	C1023.899048,643.362976 1023.455139,638.264832 1022.183777,633.517212
	C1017.941467,617.674927 1004.582703,606.832520 988.237061,605.541321
	C984.259521,605.227173 980.242493,605.374268 976.243652,605.374146
	C778.919250,605.367737 581.594788,605.383972 384.270386,605.304260
	C377.306763,605.301453 370.243378,604.923645 363.402649,603.719604
	C351.930115,601.700317 342.082214,596.178162 334.373230,587.324402
	C320.777985,571.710449 321.200317,550.774109 335.395721,535.692627
	C347.694153,522.626465 363.484161,518.530457 380.748169,518.556152
	C419.078583,518.613220 457.408905,518.731201 495.739258,518.822937
	C498.072449,518.828552 500.406097,518.792175 502.738770,518.826294
	C506.979980,518.888306 509.215485,517.080322 510.406372,512.726013
	C520.886230,474.407318 548.887634,456.995605 585.690552,450.607910
	C592.531738,449.420502 599.636658,449.457245 606.621094,449.440094
	C639.618958,449.359131 672.617554,449.407135 705.615295,449.541595
	C710.561829,449.561737 714.418152,449.043762 717.072144,443.822662
	C735.106506,408.345276 765.198120,388.559875 803.018066,379.820740
	C814.594360,377.145782 826.713440,376.698334 838.619873,375.631836
	C843.565979,375.188751 848.685730,375.274475 853.588928,376.022186
	C869.016663,378.374908 880.631592,374.633057 891.967102,362.140167
	C911.727478,340.362122 937.820374,326.837982 965.502747,317.278198
	C1039.246704,291.811523 1112.674072,292.744812 1185.254517,321.949219
	C1212.468018,332.899200 1236.636108,348.732697 1256.119507,371.016235
	C1259.313843,374.669830 1262.871216,375.829681 1267.514404,375.720306
	C1278.175171,375.469208 1288.844971,375.471985 1299.509888,375.547241
	C1342.197510,375.848419 1379.051636,389.671326 1408.156250,421.983734
	C1413.008301,427.370483 1419.208740,431.542450 1424.783081,436.279083
	C1430.434937,441.081421 1436.339478,441.213470 1443.378418,438.906250
	C1470.378784,430.056061 1495.928711,417.956543 1520.900513,404.665680
	C1574.546753,376.113251 1624.780273,342.175507 1673.319580,305.765869
	C1755.596191,244.049973 1837.509521,181.849945 1919.665649,119.973083
	C1938.550781,105.749542 1957.755859,91.880775 1979.781128,82.759308
	C1984.886719,80.644943 1990.618774,79.345245 1996.130127,79.081993
	C2003.363525,78.736473 2006.862671,82.389885 2006.453857,89.442352
	C2006.151123,94.662941 2004.992920,99.999847 2003.249390,104.944153
	C1991.907471,137.106995 1975.713867,166.877426 1958.531128,196.238602
	C1934.481812,237.333130 1910.396362,278.439758 1887.732056,320.302277
	C1864.866211,362.537262 1845.770508,406.419098 1835.190674,453.711456
	C1828.478271,483.716614 1824.767090,514.048706 1821.619995,544.522827
	C1820.377563,556.554138 1817.817993,568.188232 1811.458740,578.689331
	C1806.461914,586.940613 1799.590698,592.999023 1790.509399,596.435913
	C1781.899048,599.694519 1774.145508,598.149292 1767.261353,592.155029
	C1758.085571,584.165527 1754.713623,573.595032 1754.041870,561.886597
	C1753.270630,548.444580 1755.225952,535.337158 1758.770508,522.388733
	C1768.587280,486.526611 1783.706787,452.798615 1801.121582,420.162292
	C1828.078125,369.643951 1856.021729,319.653351 1883.253662,269.280426
	C1892.906738,251.424530 1901.950073,233.224060 1910.741211,214.926025
	C1913.423218,209.343704 1915.077637,203.008011 1915.883179,196.844864
	C1917.075439,187.724854 1913.099121,184.093689 1904.164429,186.662552
	C1896.600830,188.837204 1888.906494,191.925598 1882.446655,196.333908
	C1854.133057,215.655319 1825.524902,234.662750 1798.357666,255.521515
	C1742.640625,298.300720 1687.818848,342.244843 1632.554688,385.615387
	C1568.588257,435.815460 1502.995239,483.752045 1433.324219,525.810669
	C1392.506226,550.451355 1350.273071,572.408691 1305.230347,588.526917
	C1272.943848,600.080383 1239.852173,606.337769 1205.373047,605.501831
	C1178.057007,604.839600 1150.712036,605.368469 1123.380005,605.369324
	C1121.046753,605.369385 1118.712158,605.325378 1116.380493,605.388855
	C1093.514526,606.011292 1077.131348,622.129822 1077.494629,644.892334
	C1078.090210,682.214905 1079.038940,719.541443 1080.657349,756.830811
	C1081.038086,765.605530 1083.676147,774.653687 1087.052002,782.843933
	C1092.768066,796.712341 1103.352783,805.117371 1118.912598,806.655701
	C1132.386353,807.987793 1145.495850,806.491699 1158.452515,802.953186
	C1191.869629,793.827148 1222.318481,777.886169 1251.811279,760.405151
	C1301.072388,731.206909 1349.481934,700.575684 1398.573608,671.086365
	C1418.812500,658.928955 1439.819336,648.036316 1460.644287,636.880859
	C1464.652344,634.733826 1469.359009,633.578979 1473.886719,632.781006
	C1482.391479,631.282104 1486.954956,635.662842 1485.176758,644.198853
	C1483.834106,650.644104 1481.744141,657.208252 1478.586792,662.949585
	C1468.969727,680.437256 1459.598145,698.173767 1448.472046,714.696411
	C1413.886230,766.057556 1378.133789,816.634155 1343.631714,868.050476
	C1323.230835,898.452576 1303.600342,929.430603 1284.966675,960.943909
	C1265.117432,994.513184 1248.558838,1029.819824 1237.727417,1067.444336
	C1234.620605,1078.235962 1232.686890,1089.592773 1231.975586,1100.802124
	C1230.176147,1129.160767 1242.077637,1147.615356 1267.930908,1159.398560
	C1281.252686,1165.470215 1294.558838,1171.636475 1307.491699,1178.478638
	C1315.402466,1182.663818 1323.180420,1187.527466 1329.943848,1193.337036
	C1337.088745,1199.474609 1344.640503,1201.114746 1353.700195,1201.001953
	C1375.017700,1200.736694 1396.354492,1200.994019 1417.666260,1201.625366
	C1437.374634,1202.208984 1456.658813,1205.970825 1475.789551,1210.692383
	C1502.609253,1217.311401 1525.859985,1209.672974 1545.985107,1191.678467
	C1555.877930,1182.833130 1560.722290,1171.530884 1560.680542,1157.954712
	C1560.512817,1103.291016 1560.708984,1048.626343 1560.567383,993.962463
	C1560.500366,968.127014 1544.524292,952.695190 1518.551636,952.304565
	C1498.577759,952.004272 1478.532837,952.145325 1458.658936,950.452698
	C1427.089966,947.764221 1413.192261,928.557251 1416.652954,894.799072
	C1418.560303,876.193726 1424.387207,858.444946 1431.683105,841.163269
	C1448.048096,802.399597 1469.062134,766.108154 1490.282959,729.922852
	C1511.501465,693.741638 1533.286255,657.885559 1554.018188,621.429321
	C1563.034302,605.574402 1570.164062,588.633728 1577.864990,572.053467
	C1579.661621,568.185242 1580.656494,563.840088 1581.395142,559.605286
	C1583.372070,548.270264 1578.778442,543.914429 1567.412842,546.438721
	C1563.236694,547.366272 1559.014404,548.781189 1555.262085,550.805847
	C1535.950684,561.225769 1516.785156,571.916199 1496.773804,581.960876
	C1495.967651,580.242676 1495.956177,579.075745 1495.944824,577.908875
	C1527.151733,552.357239 1559.457153,528.339966 1594.588989,508.386444
	C1601.206543,504.627930 1608.420532,501.830811 1615.551758,499.090271
	C1623.021484,496.219635 1629.685303,498.081238 1628.436279,508.756042
	C1628.146240,511.234467 1628.681763,513.809448 1628.948730,518.150818
	C1646.289795,506.546082 1652.941284,486.455353 1670.090820,475.917694
	C1672.885254,481.348511 1670.957031,485.459229 1669.347534,489.114655
	C1664.656738,499.766663 1660.053467,510.524109 1654.397827,520.672852
	C1628.301147,567.501587 1601.829712,614.121460 1575.573242,660.861450
	C1571.990234,667.239807 1568.628296,673.767517 1565.606201,680.426758
	C1563.737183,684.545410 1562.704468,689.043640 1561.395630,693.065857
	C1562.791870,694.045044 1563.359375,694.779419 1563.822754,694.718689
	C1575.001831,693.254028 1576.285522,694.086975 1578.196289,705.170105
	C1579.553711,713.044250 1580.398804,721.010315 1581.875122,728.859680
	C1586.266235,752.207703 1599.310913,768.859314 1621.296875,778.024841
	C1628.643677,781.087585 1636.344971,783.425171 1644.046631,785.487305
	C1668.515259,792.038513 1691.036377,802.368896 1710.245361,819.128906
	C1714.390747,822.745789 1718.884766,823.352051 1724.035767,823.560120
	C1740.316040,824.217712 1756.672974,824.508057 1772.821655,826.436462
	C1787.137207,828.145935 1800.579468,833.682373 1812.455078,842.022522
	C1818.389160,846.189880 1824.478394,850.885071 1828.604614,856.687378
	C1833.688721,863.836548 1839.386963,866.166382 1847.884399,865.982727
	C1871.869873,865.464355 1895.873291,865.686462 1919.869019,865.759521
	C1933.758667,865.801819 1946.952637,868.985535 1959.267334,875.482239
	C1968.296143,880.245422 1976.087646,886.471252 1980.368774,896.006836
	C1982.971191,901.803284 1987.247803,903.482483 1993.144775,903.390747
	C2006.806152,903.178284 2020.482422,902.904968 2034.131836,903.326477
	C2042.052368,903.571106 2050.148926,904.308472 2057.756348,906.350769
	C2062.974365,907.751526 2068.123291,911.079895 2072.183105,914.776733
	C2080.724365,922.554443 2080.490234,933.032104 2072.220459,941.144836
	C2064.705078,948.517456 2055.157227,951.283386 2044.981323,952.159119
	C2041.008179,952.501038 2036.988525,952.345337 2032.990112,952.345581
	C1912.008179,952.353149 1791.026367,952.351685 1670.044434,952.352722
	C1666.378296,952.352722 1662.710083,952.283691 1659.046509,952.384033
	C1637.357788,952.977966 1621.416992,968.464478 1620.157959,990.169250
	C1620.003784,992.827637 1620.070435,995.500122 1620.070312,998.166077
	C1620.066284,1076.487671 1620.066528,1154.809326 1620.067749,1233.130981
	C1620.067749,1235.130615 1620.027832,1237.132202 1620.102295,1239.129395
	C1620.921509,1261.109375 1635.724731,1275.848511 1657.808228,1276.022095
	C1683.135010,1276.221191 1708.465332,1275.939087 1733.794189,1275.874146
	C1756.918701,1275.814819 1779.634277,1278.479858 1801.707764,1285.753906
	C1816.047607,1290.479614 1829.597900,1296.706421 1841.694580,1305.844849
	C1851.961548,1313.601318 1860.687378,1322.772339 1865.301147,1334.963501
	C1867.713013,1341.336060 1871.651367,1343.524780 1878.147827,1343.477661
	C1899.809082,1343.320435 1921.472778,1343.496216 1943.135620,1343.543335
	C1991.127075,1343.647583 2039.121094,1344.072632 2087.108887,1343.705078
	C2107.799072,1343.546631 2123.294678,1350.823242 2132.646484,1369.743164
	C2133.012451,1370.483276 2134.170166,1370.832153 2135.479492,1370.681641
	C2136.000000,1380.709839 2136.000000,1391.419800 2136.000000,1403.064819
M737.000366,905.353455
	C680.680359,905.353455 624.360352,905.345337 568.040344,905.370605
	C564.046509,905.372437 560.031311,905.402710 556.063171,905.794983
	C545.186890,906.869934 536.582092,912.118896 529.919922,920.658936
	C523.675232,928.663940 521.712708,937.834045 522.044128,947.854919
	C523.442993,990.151550 524.680542,1032.453613 525.923950,1074.755371
	C527.470886,1127.382935 528.957764,1180.012207 530.502747,1232.639771
	C530.590637,1235.631470 530.816406,1238.636475 531.238342,1241.598145
	C533.766357,1259.344849 547.266052,1272.617432 565.122925,1274.413696
	C571.050049,1275.010132 577.103882,1274.211304 583.083496,1274.453247
	C591.554871,1274.796143 597.708313,1271.649414 602.077698,1264.183838
	C604.224060,1260.516602 607.528076,1257.471313 610.550354,1254.381592
	C625.655090,1238.939819 643.773743,1227.697754 662.863892,1218.087524
	C696.453857,1201.177734 730.577393,1185.311890 763.961121,1168.012329
	C823.111267,1137.360840 880.680298,1104.473633 932.869019,1062.196167
	C988.227600,1017.350769 1045.984497,975.458008 1102.857666,932.492249
	C1154.658691,893.358398 1206.660400,854.489807 1258.608765,815.551147
	C1299.909790,784.593445 1341.321655,753.811096 1386.717896,728.873169
	C1393.065918,725.385925 1398.843140,720.660645 1404.323975,715.867432
	C1407.648682,712.959961 1410.930298,709.248962 1409.728638,703.794678
	C1403.996460,701.475220 1398.951416,703.739136 1394.142334,705.685608
	C1386.747559,708.678711 1379.284668,711.747131 1372.415161,715.752014
	C1342.506592,733.188538 1312.759155,750.903259 1283.034912,768.653687
	C1248.463379,789.298706 1214.332764,810.712158 1179.338013,830.608582
	C1152.688599,845.760315 1124.476562,857.548035 1094.469849,865.053467
	C1064.808594,872.472473 1035.250000,880.527649 1006.126831,889.810791
	C974.398132,899.924561 942.327454,905.718811 908.960876,905.469788
	C852.310242,905.046936 795.654175,905.353455 737.000366,905.353455
z"/>
<path fill="#B6B7BB" opacity="1.000000" stroke="none"
	d="
M1495.306396,578.045044
	C1495.956177,579.075745 1495.967651,580.242676 1496.119019,582.273560
	C1493.357422,585.103271 1490.455688,587.068909 1486.770264,588.383545
	C1485.944946,587.092529 1485.903442,586.452393 1485.861816,585.812256
	C1488.797241,583.268555 1491.732666,580.724915 1495.306396,578.045044
z"/>
<path fill="#808184" opacity="1.000000" stroke="none"
	d="
M1485.273926,586.038574
	C1485.903442,586.452393 1485.944946,587.092529 1486.152954,588.680298
	C1484.810303,590.507935 1483.301270,591.387878 1481.792114,592.267761
	C1481.399048,591.903076 1481.005859,591.538330 1480.612793,591.173645
	C1481.970581,589.537354 1483.328247,587.901123 1485.273926,586.038574
z"/>
</svg>