<svg fill="none" height="311" viewBox="0 0 1259 311" width="1259" xmlns="http://www.w3.org/2000/svg"><path clip-rule="evenodd" d="m340.895 96.4402c-55.238 0-100.017 44.7788-100.017 100.0168v9.258c0 55.238 44.779 100.017 100.017 100.017h9.964c55.238 0 100.017-44.779 100.017-100.017v-9.258c0-55.238-44.78-100.0168-100.017-100.0168zm4.502 29.0048c-41.705 0-75.513 33.808-75.513 75.512 0 41.705 33.808 75.513 75.513 75.513 41.704 0 75.513-33.808 75.513-75.513 0-41.704-33.809-75.512-75.513-75.512z" fill="#c6ffd9" fill-rule="evenodd"/><path clip-rule="evenodd" d="m235.879 196.457c0-58 47.018-105.018 105.018-105.018h9.963c58 0 105.018 47.018 105.018 105.017v9.258c0 58-47.018 105.018-105.018 105.018h-9.963c-58 0-105.018-47.018-105.018-105.018zm109.52-66.012c-38.943 0-70.512 31.569-70.512 70.512 0 38.942 31.569 70.512 70.512 70.512 38.942 0 70.511-31.57 70.511-70.512 0-38.943-31.569-70.512-70.511-70.512zm-104.521 66.012c0-55.238 44.779-100.0168 100.017-100.0168h9.964c55.237 0 100.017 44.7788 100.017 100.0168v9.258c0 55.238-44.779 100.017-100.017 100.017h-9.964c-55.238 0-100.017-44.779-100.017-100.017zm29.006 4.5c0-41.704 33.808-75.512 75.513-75.512 41.704 0 75.513 33.808 75.513 75.512 0 41.705-33.809 75.513-75.513 75.513-41.705 0-75.513-33.808-75.513-75.513z" fill="#c6ffd9" fill-rule="evenodd"/><path clip-rule="evenodd" d="m897.08 91.9395v40.5065h-134.023c-13.257 0-24.004 10.747-24.004 24.004s10.747 24.004 24.004 24.004h89.517c35.629 0 64.511 28.883 64.511 64.511 0 35.629-28.882 64.511-64.511 64.511h-133.522v-39.507h133.522c13.534 0 24.505-10.97 24.505-24.504 0-13.533-10.971-24.504-24.505-24.504h-89.017c-35.628 0-64.51-28.882-64.51-64.511 0-35.628 28.882-64.5105 64.51-64.5105z" fill="#c6ffd9" fill-rule="evenodd"/><path d="m1253.45 274.47h-89.01v29.005h89.01z" fill="#5be39d"/><path clip-rule="evenodd" d="m1159.44 93.4403v39.0067h29v137.023h-29v39.006h99.01v-39.006h-31v-156.026c0-11.048-8.96-20.0037-20-20.0037z" fill="#5be39d" fill-rule="evenodd"/><path d="m1192.96 28.4282 20.51 20.5096-20.51 20.5095-20.51-20.5095z" fill="#5be39d"/><g clip-rule="evenodd" fill-rule="evenodd"><path d="m1192.96 21.356 27.58 27.5817-27.58 27.5818-27.58-27.5818zm0 7.0722-20.51 20.5096 20.51 20.5095 20.51-20.5095z" fill="#5be39d"/><path d="m507.464 114.262v10.912c0 .371.487.521.694.213 5.771-8.593 19.734-24.294 37.381-30.6962 8.891-2.4459 18.254-3.7523 27.921-3.7523h8.002c57.999 0 105.017 47.0175 105.017 105.0175v113.019h-39.006v-108.518c0-38.39-31.122-69.512-69.512-69.512s-69.511 31.122-69.511 69.512v108.518h-.994v.5h-39.006v-.5h-.007v-113.019c0-.404.002-.808.007-1.211v-103.3064h39.006v22.8294c.003-.002.006-.004.008-.006z" fill="#c6ffd9"/><path d="m1111.68 92.4397h-182.031v39.0063h163.031c8.28 0 15 6.717 15 15.003v18.269c0 .389-.42.633-.76.437-11.53-6.714-24.88-13.705-39.1-13.705h-59.06c-43.661 0-79.055 35.393-79.055 79.054 0 43.66 35.394 79.054 79.055 79.054h59.06c2.94 0 5.84-.16 8.69-.472 14.49-7.583 25.68-20.56 30.53-27.91.14-.206.46-.105.46.143v11.722c1.28-.815 2.54-1.668 3.76-2.558-1.17.849-2.36 1.664-3.58 2.445-.06.038-.12.075-.18.113v5.852c.06-.034.12-.069.18-.104v9.687h39.01v-72.435c.12-1.83.19-3.676.19-5.537s-.07-3.707-.19-5.537v-97.521c0-19.334-15.68-35.0063-35.01-35.0063zm-143.25 138.9533c0-21.819 17.688-39.507 39.51-39.507h60.01c21.82 0 39.5 17.688 39.5 39.507 0 21.818-17.68 39.506-39.5 39.506h-60.01c-21.822 0-39.51-17.688-39.51-39.506z" fill="#5be39d"/><path d="m.253174.424316h42.903926v112.816684h.0002v11.488c0 .248.322.349.4583.143 6.227-9.43 22.8755-28.1187 43.549-32.7995.9181-.2078 1.7182-.4014 2.4069-.5815 7.3194-1.519 14.8985-2.3175 22.6565-2.3175 61.132 0 111.085 49.5535 111.085 110.7285 0 61.176-49.953 110.729-111.085 110.729-10.606 0-20.8767-1.492-30.6078-4.277-18.0869-6.393-32.3662-22.624-38.0285-31.198-.1363-.206-.4583-.105-.4583.143v32.656c.0079.001.0158.002.0237.002v2.797h-42.903926zm111.617826 130.813684c-37.8397 0-68.6608 30.678-68.6608 68.487 0 37.808 30.8211 68.486 68.6608 68.486 37.839 0 68.66-30.678 68.66-68.486 0-37.809-30.821-68.487-68.66-68.487z" fill="#c6ffd9"/></g></svg>