<svg width="55" height="55" viewBox="0 0 55 55" fill="none" xmlns="http://www.w3.org/2000/svg">
<path d="M10.1667 10.1667H33.0833M37.6667 19.3333H5.58333H37.6667ZM37.6667 19.3333C38.8822 19.3333 40.048 19.8162 40.9076 20.6758C41.7671 21.5353 42.25 22.7011 42.25 23.9167V37.6667C42.25 38.8822 41.7671 40.048 40.9076 40.9076C40.048 41.7671 38.8822 42.25 37.6667 42.25H5.58333C4.36776 42.25 3.20197 41.7671 2.34243 40.9076C1.48289 40.048 1 38.8822 1 37.6667V23.9167C1 22.7011 1.48289 21.5353 2.34243 20.6758C3.20197 19.8162 4.36776 19.3333 5.58333 19.3333H37.6667ZM37.6667 19.3333V14.75C37.6667 13.5344 37.1838 12.3686 36.3242 11.5091C35.4647 10.6496 34.2989 10.1667 33.0833 10.1667L37.6667 19.3333ZM5.58333 19.3333V14.75C5.58333 13.5344 6.06622 12.3686 6.92576 11.5091C7.7853 10.6496 8.95109 10.1667 10.1667 10.1667L5.58333 19.3333ZM10.1667 10.1667V5.58333C10.1667 4.36776 10.6496 3.20197 11.5091 2.34243C12.3686 1.48289 13.5344 1 14.75 1H28.5C29.7156 1 30.8814 1.48289 31.7409 2.34243C32.6004 3.20197 33.0833 4.36776 33.0833 5.58333V10.1667H10.1667Z" stroke="#E42101" stroke-width="2" stroke-linecap="round" stroke-linejoin="round"/>
</svg>
