<svg width="55" height="55" viewBox="0 0 55 55" fill="none" xmlns="http://www.w3.org/2000/svg">
<path d="M16.0417 18.3334H38.9583H16.0417ZM16.0417 27.5001H25.2083H16.0417ZM27.5 45.8334L18.3333 36.6667H11.4583C10.2428 36.6667 9.07697 36.1839 8.21743 35.3243C7.35789 34.4648 6.875 33.299 6.875 32.0834V13.7501C6.875 12.5345 7.35789 11.3687 8.21743 10.5092C9.07697 9.64963 10.2428 9.16675 11.4583 9.16675H43.5417C44.7572 9.16675 45.923 9.64963 46.7826 10.5092C47.6421 11.3687 48.125 12.5345 48.125 13.7501V32.0834C48.125 33.299 47.6421 34.4648 46.7826 35.3243C45.923 36.1839 44.7572 36.6667 43.5417 36.6667H36.6667L27.5 45.8334Z" stroke="#E42101" stroke-width="2" stroke-linecap="round" stroke-linejoin="round"/>
</svg>
