<svg width="72" height="64" viewBox="0 0 72 64" fill="none" xmlns="http://www.w3.org/2000/svg">
<path d="M0 9.5C0 4.57812 3.9375 0.5 9 0.5H63C67.9219 0.5 72 4.57812 72 9.5V54.5C72 59.5625 67.9219 63.5 63 63.5H9C3.9375 63.5 0 59.5625 0 54.5V9.5ZM13.5 18.5C15.8906 18.5 18 16.5312 18 14C18 11.6094 15.8906 9.5 13.5 9.5C10.9688 9.5 9 11.6094 9 14C9 16.5312 10.9688 18.5 13.5 18.5ZM63 14C63 12.1719 61.4531 10.625 59.625 10.625H25.875C23.9062 10.625 22.5 12.1719 22.5 14C22.5 15.9688 23.9062 17.375 25.875 17.375H59.625C61.4531 17.375 63 15.9688 63 14Z" fill="#E42101"/>
</svg>
