<svg width="13" height="13" viewBox="0 0 13 13" fill="none" xmlns="http://www.w3.org/2000/svg">
<path d="M6.21924 10.25C8.89111 10.25 11.0942 8.07031 11.0942 5.375C11.0942 2.70312 8.89111 0.5 6.21924 0.5C3.52393 0.5 1.34424 2.70312 1.34424 5.375C1.34424 8.07031 3.52393 10.25 6.21924 10.25ZM5.68018 2.79688V2.39844C5.68018 2.1875 5.86768 2 6.07861 2H6.33643C6.54736 2 6.73486 2.1875 6.73486 2.39844V2.79688C7.08643 2.82031 7.43799 2.9375 7.74268 3.14844C7.85986 3.26562 7.8833 3.45312 7.76611 3.57031L7.39111 3.92188C7.29736 4.01562 7.15674 4.01562 7.06299 3.94531C6.92236 3.875 6.78174 3.82812 6.64111 3.82812H5.72705C5.51611 3.82812 5.35205 4.01562 5.35205 4.25C5.35205 4.4375 5.46924 4.625 5.6333 4.67188L7.08643 5.11719C7.6958 5.28125 8.11768 5.86719 8.11768 6.52344C8.11768 7.32031 7.48486 7.95312 6.73486 7.97656V8.375C6.73486 8.58594 6.54736 8.75 6.33643 8.75H6.07861C5.86768 8.75 5.68018 8.58594 5.68018 8.375V7.97656C5.32861 7.95312 4.97705 7.83594 4.67236 7.60156C4.55518 7.50781 4.53174 7.32031 4.64893 7.20312L5.02393 6.85156C5.11768 6.75781 5.2583 6.75781 5.35205 6.82812C5.49268 6.89844 5.6333 6.94531 5.77393 6.94531H6.68799C6.89893 6.94531 7.06299 6.75781 7.06299 6.52344C7.06299 6.3125 6.9458 6.14844 6.78174 6.10156L5.32861 5.65625C4.71924 5.49219 4.29736 4.90625 4.29736 4.25C4.29736 3.45312 4.93018 2.82031 5.68018 2.79688ZM11.4692 8.75H10.6958C10.2271 9.35938 9.64111 9.875 8.98486 10.25H10.4849C10.6021 10.25 10.6958 10.3438 10.6958 10.4375V10.8125C10.6958 10.9297 10.6021 11 10.4849 11H1.93018C1.81299 11 1.71924 10.9297 1.71924 10.8125V10.4375C1.71924 10.3438 1.81299 10.25 1.93018 10.25H3.43018C2.77393 9.875 2.18799 9.35938 1.71924 8.75H0.969238C0.547363 8.75 0.219238 9.10156 0.219238 9.5V11.75C0.219238 12.1719 0.547363 12.5 0.969238 12.5H11.4692C11.8677 12.5 12.2192 12.1719 12.2192 11.75V9.5C12.2192 9.10156 11.8677 8.75 11.4692 8.75Z" fill="#0F1111"/>
</svg>
