<svg width="17" height="16" viewBox="0 0 17 16" fill="none" xmlns="http://www.w3.org/2000/svg">
<path d="M15.6475 11H11.46L10.0537 12.4375C9.67871 12.8125 9.17871 13 8.64746 13C8.08496 13 7.58496 12.8125 7.20996 12.4375L5.80371 11H1.64746C1.08496 11 0.647461 11.4688 0.647461 12V15C0.647461 15.5625 1.08496 16 1.64746 16H15.6475C16.1787 16 16.6475 15.5625 16.6475 15V12C16.6475 11.4688 16.1787 11 15.6475 11ZM14.1475 14.25C13.71 14.25 13.3975 13.9375 13.3975 13.5C13.3975 13.0938 13.71 12.75 14.1475 12.75C14.5537 12.75 14.8975 13.0938 14.8975 13.5C14.8975 13.9375 14.5537 14.25 14.1475 14.25ZM7.92871 11.7188C8.11621 11.9062 8.36621 12 8.64746 12C8.89746 12 9.14746 11.9062 9.33496 11.7188L13.335 7.71875C13.7412 7.34375 13.7412 6.6875 13.335 6.3125C12.96 5.90625 12.3037 5.90625 11.9287 6.3125L9.64746 8.59375V1C9.64746 0.46875 9.17871 0 8.64746 0C8.08496 0 7.64746 0.46875 7.64746 1V8.59375L5.33496 6.3125C4.95996 5.90625 4.30371 5.90625 3.92871 6.3125C3.52246 6.6875 3.52246 7.34375 3.92871 7.71875L7.92871 11.7188Z" fill="#0F1111"/>
</svg>
