<svg width="60" height="48" viewBox="0 0 60 48" fill="none" xmlns="http://www.w3.org/2000/svg">
  <path d="M25.125 25.6875C25.6875 25.5938 26.3438 25.5 27 25.5H33C33.5625 25.5 34.2188 25.5938 34.7812 25.6875C34.875 25.7812 34.9688 25.7812 35.0625 25.7812C37.3125 26.3438 39.1875 27.6562 40.4062 29.5312C40.5 29.7188 40.6875 29.9062 40.7812 30C41.5312 31.4062 42 32.9062 42 34.5C42 36.1875 40.5938 37.5 39 37.5H21C19.3125 37.5 18 36.1875 18 34.5C18 32.9062 18.375 31.4062 19.125 30C20.3438 27.9375 22.4062 26.3438 24.8438 25.7812C24.9375 25.7812 25.0312 25.7812 25.125 25.6875ZM37.2188 33C36.5625 31.3125 34.875 30 33 30H27C25.0312 30 23.3438 31.3125 22.6875 33H37.2188ZM23.25 15.75C23.25 12.0938 26.25 9 30 9C33.6562 9 36.75 12.0938 36.75 15.75C36.75 17.9062 35.7188 19.875 34.125 21.0938C33.75 21.375 33.375 21.6562 33 21.8438C32.0625 22.3125 31.0312 22.5 30 22.5C28.875 22.5 27.8438 22.3125 27 21.8438C26.5312 21.6562 26.1562 21.375 25.7812 21.0938C24.1875 19.875 23.25 17.9062 23.25 15.75ZM30 18C31.2188 18 32.25 17.0625 32.25 15.75C32.25 14.5312 31.2188 13.5 30 13.5C28.6875 13.5 27.75 14.5312 27.75 15.75C27.75 17.0625 28.6875 18 30 18ZM20.9062 15C20.9062 17.5312 18.9375 19.5 16.4062 19.5C13.9688 19.5 11.9062 17.5312 11.9062 15C11.9062 12.5625 13.9688 10.5 16.4062 10.5C18.9375 10.5 20.9062 12.5625 20.9062 15ZM9 27.5625C9 24.75 11.1562 22.5 13.9688 22.5H20.4375C21.375 22.5 22.2188 22.7812 22.9688 23.25C19.6875 24.375 17.1562 26.9062 15.8438 30H11.4375C10.0312 30 9 28.9688 9 27.5625ZM36.9375 23.25C37.6875 22.7812 38.5312 22.5 39.4688 22.5H45.9375C48.75 22.5 51 24.75 51 27.5625C51 28.9688 49.875 30 48.4688 30H44.0625C42.75 26.9062 40.2188 24.375 36.9375 23.25ZM48 15C48 17.5312 45.9375 19.5 43.5 19.5C40.9688 19.5 39 17.5312 39 15C39 12.5625 40.9688 10.5 43.5 10.5C45.9375 10.5 48 12.5625 48 15ZM51.75 0C56.25 0 60 3.75 60 8.25V39.75C60 44.3438 56.25 48 51.75 48H8.25C3.65625 48 0 44.3438 0 39.75V8.25C0 3.75 3.65625 0 8.25 0H51.75ZM4.5 39.75C4.5 41.9062 6.09375 43.5 8.25 43.5H51.75C53.8125 43.5 55.5 41.9062 55.5 39.75V8.25C55.5 6.1875 53.8125 4.5 51.75 4.5H8.25C6.09375 4.5 4.5 6.1875 4.5 8.25V39.75Z" fill="#E42101"/>
</svg>
