<svg width="55" height="55" viewBox="0 0 55 55" fill="none" xmlns="http://www.w3.org/2000/svg">
<path d="M18.3337 16.0417H13.7503C12.5347 16.0417 11.369 16.5246 10.5094 17.3841C9.64988 18.2436 9.16699 19.4094 9.16699 20.625V43.5417C9.16699 44.7572 9.64988 45.923 10.5094 46.7826C11.369 47.6421 12.5347 48.125 13.7503 48.125H32.0837C33.2992 48.125 34.465 47.6421 35.3246 46.7826C36.1841 45.923 36.667 44.7572 36.667 43.5417V38.9583M18.3337 16.0417V34.375C18.3337 35.5906 18.8165 36.7564 19.6761 37.6159C20.5356 38.4754 21.7014 38.9583 22.917 38.9583H36.667L18.3337 16.0417ZM18.3337 16.0417V11.4583C18.3337 10.2428 18.8165 9.07697 19.6761 8.21743C20.5356 7.35789 21.7014 6.875 22.917 6.875H33.4266C34.0343 6.87513 34.6171 7.11666 35.0468 7.54646L45.1622 17.6619C45.592 18.0915 45.8335 18.6743 45.8337 19.2821V34.375C45.8337 35.5906 45.3508 36.7564 44.4912 37.6159C43.6317 38.4754 42.4659 38.9583 41.2503 38.9583H36.667L18.3337 16.0417Z" stroke="#E42101" stroke-width="2" stroke-linecap="round" stroke-linejoin="round"/>
</svg>
