<svg width="48" height="48" viewBox="0 0 48 48" fill="none" xmlns="http://www.w3.org/2000/svg">
<path d="M45 0C44.625 0 44.3438 0.09375 44.0625 0.1875L15.5625 9.1875C14.3438 9.5625 13.5 10.6875 13.5 12V34.125C12.0938 33.375 10.5 33 9 33C3.9375 33 0 36.375 0 40.5C0 44.7188 3.9375 48 8.90625 48C13.5 48 17.25 45.0938 17.7188 41.3438C17.8125 41.1562 17.9062 40.7812 17.9062 40.5938L18 24L43.5 16.0312V28.125C42.0938 27.375 40.5 27 38.9062 27C33.9375 27 30 30.375 30 34.5C30 38.5312 33.9375 41.9062 38.9062 41.9062C43.5938 41.9062 47.3438 38.9062 47.9062 35.25C47.9062 34.9688 47.9062 34.6875 48 34.4062V3C48 1.40625 46.5938 0 45 0ZM9 43.5C6.28125 43.5 4.5 42 4.5 40.5C4.5 39.0938 6.28125 37.5 9 37.5C11.625 37.5 13.5 39.0938 13.5 40.5C13.5 42 11.625 43.5 9 43.5ZM43.5 34.5C43.5 36 41.625 37.5 39 37.5C36.2812 37.5 34.5 36 34.5 34.5C34.5 33.0938 36.2812 31.5 39 31.5C41.625 31.5 43.5 33.0938 43.5 34.5ZM43.5 11.25L18 19.3125V13.125L43.5 5.0625V11.25Z" fill="currentColor"/>
</svg>
