<svg width="598" height="213" viewBox="0 0 598 213" fill="none" xmlns="http://www.w3.org/2000/svg">
<g filter="url(#filter0_d_226_1117)">
<g filter="url(#filter1_d_226_1117)">
<path d="M574.976 163C574.989 171.284 568.284 178.011 560 178.025L52.24 178.881C43.9557 178.895 37.2293 172.191 37.2162 163.906L36.9999 27.6969L574.76 26.7905L574.976 163Z" fill="#262626"/>
</g>
<path d="M69.3135 144.5C69.3135 141.185 72.0015 138.5 75.3172 138.5H78.5917C81.9592 138.5 84.6885 141.23 84.6885 144.597C84.6885 146.818 83.4832 148.858 81.5415 149.93L75.501 153.275V150.507H75.4507C72.0832 150.583 69.3135 147.875 69.3135 144.5ZM75.3172 140C72.8295 140 70.8135 142.017 70.8135 144.5C70.8135 147.028 72.891 149.06 75.417 149.007L75.6802 149H77.001V150.725L80.8162 148.618C82.2795 147.807 83.1885 146.27 83.1885 144.597C83.1885 142.055 81.1305 140 78.5917 140H75.3172Z" fill="#B8B1A5"/>
<g clip-path="url(#clip0_226_1117)">
<path d="M223.708 139.91L227.032 143.015L226.009 144.11L224.458 142.663V149C224.458 149.825 225.13 150.5 225.958 150.5H230.083V152H225.958C224.302 152 222.958 150.658 222.958 149V142.663L221.407 144.11L220.384 143.015L223.708 139.91ZM232.708 141.5H228.583V140H232.708C234.365 140 235.708 141.343 235.708 143V149.338L237.259 147.89L238.282 148.985L234.958 152.09L231.634 148.985L232.657 147.89L234.208 149.338V143C234.208 142.175 233.536 141.5 232.708 141.5Z" fill="#B8B1A5"/>
</g>
<path d="M385.189 141.125C384.273 141.08 383.18 141.507 382.272 142.745L381.668 143.562L381.064 142.745C380.155 141.507 379.061 141.08 378.145 141.125C377.212 141.177 376.383 141.71 375.962 142.557C375.548 143.397 375.487 144.642 376.321 146.172C377.127 147.65 378.764 149.375 381.668 151.13C384.571 149.375 386.207 147.65 387.013 146.172C387.846 144.642 387.785 143.397 387.37 142.557C386.95 141.71 386.121 141.177 385.189 141.125ZM388.33 146.892C387.316 148.752 385.329 150.732 382.045 152.645L381.668 152.87L381.29 152.645C378.006 150.732 376.018 148.752 375.004 146.892C373.984 145.017 373.946 143.247 374.618 141.89C375.283 140.547 376.603 139.707 378.069 139.632C379.307 139.565 380.595 140.052 381.667 141.14C382.739 140.052 384.027 139.565 385.264 139.632C386.73 139.707 388.05 140.547 388.715 141.89C389.387 143.247 389.35 145.017 388.33 146.892Z" fill="#B8B1A5"/>
<path d="M534 138.943L538.275 143.218L537.218 144.283L534.75 141.808V149H533.25V141.808L530.775 144.283L529.717 143.218L534 138.943ZM540.75 148.25L540.735 150.883C540.735 151.918 539.895 152.75 538.86 152.75H529.125C528.082 152.75 527.25 151.91 527.25 150.875V148.25H528.75V150.875C528.75 151.085 528.915 151.25 529.125 151.25H538.86C539.07 151.25 539.235 151.085 539.235 150.875L539.25 148.25H540.75Z" fill="#B8B1A5"/>
<rect x="68" y="73" width="470" height="40" rx="20" fill="#514D4D"/>
<path d="M251.901 92.644V93.1201C251.901 93.8184 251.808 94.4468 251.622 95.0054C251.436 95.5597 251.171 96.0316 250.829 96.4209C250.486 96.8102 250.077 97.1086 249.604 97.3159C249.13 97.5233 248.603 97.627 248.023 97.627C247.452 97.627 246.927 97.5233 246.449 97.3159C245.975 97.1086 245.564 96.8102 245.217 96.4209C244.87 96.0316 244.602 95.5597 244.411 95.0054C244.221 94.4468 244.125 93.8184 244.125 93.1201V92.644C244.125 91.9416 244.221 91.3132 244.411 90.7588C244.602 90.2044 244.868 89.7326 245.211 89.3433C245.554 88.9497 245.962 88.6493 246.436 88.4419C246.914 88.2345 247.439 88.1309 248.01 88.1309C248.59 88.1309 249.117 88.2345 249.591 88.4419C250.065 88.6493 250.473 88.9497 250.816 89.3433C251.163 89.7326 251.43 90.2044 251.616 90.7588C251.806 91.3132 251.901 91.9416 251.901 92.644ZM250.137 93.1201V92.6313C250.137 92.1278 250.09 91.6855 249.997 91.3047C249.904 90.9196 249.766 90.5959 249.584 90.3335C249.403 90.0711 249.178 89.8743 248.912 89.7432C248.645 89.6077 248.345 89.54 248.01 89.54C247.672 89.54 247.371 89.6077 247.109 89.7432C246.851 89.8743 246.631 90.0711 246.449 90.3335C246.267 90.5959 246.127 90.9196 246.03 91.3047C245.937 91.6855 245.89 92.1278 245.89 92.6313V93.1201C245.89 93.6195 245.937 94.0617 246.03 94.4468C246.127 94.8319 246.267 95.1577 246.449 95.4243C246.635 95.6867 246.859 95.8856 247.122 96.021C247.384 96.1564 247.684 96.2241 248.023 96.2241C248.361 96.2241 248.662 96.1564 248.924 96.021C249.187 95.8856 249.407 95.6867 249.584 95.4243C249.766 95.1577 249.904 94.8319 249.997 94.4468C250.09 94.0617 250.137 93.6195 250.137 93.1201ZM254.897 92.0981V97.5H253.222V90.6318H254.796L254.897 92.0981ZM254.631 93.8184H254.136C254.14 93.319 254.208 92.8662 254.339 92.46C254.47 92.0537 254.654 91.7046 254.891 91.4126C255.132 91.1206 255.418 90.8963 255.748 90.7397C256.078 90.5832 256.446 90.5049 256.853 90.5049C257.183 90.5049 257.481 90.5514 257.748 90.6445C258.014 90.7376 258.243 90.8857 258.433 91.0889C258.628 91.292 258.776 91.5586 258.877 91.8887C258.983 92.2145 259.036 92.6165 259.036 93.0947V97.5H257.348V93.082C257.348 92.7689 257.301 92.5213 257.208 92.3394C257.119 92.1574 256.988 92.0283 256.814 91.9521C256.645 91.876 256.436 91.8379 256.186 91.8379C255.928 91.8379 255.701 91.8908 255.507 91.9966C255.316 92.0981 255.156 92.2399 255.024 92.4219C254.897 92.6038 254.8 92.8133 254.732 93.0503C254.665 93.2873 254.631 93.5433 254.631 93.8184ZM262.292 87.75V97.5H260.61V87.75H262.292ZM265.904 96.7383L267.745 90.6318H269.542L266.787 98.541C266.723 98.7103 266.641 98.8944 266.539 99.0933C266.442 99.2922 266.311 99.4805 266.146 99.6582C265.98 99.8402 265.773 99.9883 265.523 100.103C265.278 100.217 264.98 100.274 264.628 100.274C264.476 100.274 264.341 100.263 264.222 100.242C264.104 100.221 263.979 100.194 263.848 100.16V98.9028C263.89 98.9071 263.939 98.9092 263.994 98.9092C264.053 98.9134 264.104 98.9155 264.146 98.9155C264.391 98.9155 264.595 98.8859 264.755 98.8267C264.916 98.7716 265.045 98.6807 265.143 98.5537C265.244 98.431 265.329 98.2702 265.396 98.0713L265.904 96.7383ZM264.997 90.6318L266.552 95.6909L266.825 97.4619L265.669 97.6714L263.188 90.6318H264.997ZM275.788 97.5H274.099V89.9971C274.099 89.4808 274.199 89.047 274.397 88.6958C274.596 88.3403 274.88 88.0716 275.248 87.8896C275.616 87.7077 276.05 87.6167 276.549 87.6167C276.714 87.6167 276.871 87.6273 277.019 87.6484C277.171 87.6696 277.322 87.6992 277.47 87.7373L277.438 89.0132C277.358 88.992 277.269 88.9772 277.171 88.9688C277.078 88.9603 276.975 88.9561 276.86 88.9561C276.632 88.9561 276.437 88.9963 276.276 89.0767C276.116 89.1571 275.993 89.2756 275.908 89.4321C275.828 89.5845 275.788 89.7728 275.788 89.9971V97.5ZM277.178 90.6318V91.8379H273.064V90.6318H277.178ZM277.914 94.1357V94.0024C277.914 93.4989 277.986 93.0355 278.13 92.6123C278.274 92.1849 278.483 91.8146 278.758 91.5015C279.033 91.1883 279.37 90.945 279.768 90.7715C280.165 90.5938 280.618 90.5049 281.126 90.5049C281.642 90.5049 282.099 90.5938 282.497 90.7715C282.899 90.945 283.238 91.1883 283.513 91.5015C283.788 91.8146 283.997 92.1849 284.141 92.6123C284.285 93.0355 284.357 93.4989 284.357 94.0024V94.1357C284.357 94.6351 284.285 95.0985 284.141 95.5259C283.997 95.9491 283.788 96.3193 283.513 96.6367C283.238 96.9499 282.901 97.1932 282.503 97.3667C282.106 97.5402 281.651 97.627 281.139 97.627C280.631 97.627 280.176 97.5402 279.774 97.3667C279.372 97.1932 279.033 96.9499 278.758 96.6367C278.483 96.3193 278.274 95.9491 278.13 95.5259C277.986 95.0985 277.914 94.6351 277.914 94.1357ZM279.59 94.0024V94.1357C279.59 94.4362 279.619 94.7176 279.679 94.98C279.738 95.2424 279.829 95.473 279.952 95.6719C280.074 95.8708 280.233 96.0273 280.428 96.1416C280.627 96.2516 280.864 96.3066 281.139 96.3066C281.41 96.3066 281.642 96.2516 281.837 96.1416C282.032 96.0273 282.19 95.8708 282.313 95.6719C282.44 95.473 282.533 95.2424 282.592 94.98C282.652 94.7176 282.681 94.4362 282.681 94.1357V94.0024C282.681 93.7062 282.652 93.429 282.592 93.1709C282.533 92.9085 282.44 92.6779 282.313 92.479C282.19 92.2759 282.029 92.1172 281.831 92.0029C281.636 91.8844 281.401 91.8252 281.126 91.8252C280.855 91.8252 280.622 91.8844 280.428 92.0029C280.233 92.1172 280.074 92.2759 279.952 92.479C279.829 92.6779 279.738 92.9085 279.679 93.1709C279.619 93.429 279.59 93.7062 279.59 94.0024ZM287.251 92.0347V97.5H285.576V90.6318H287.163L287.251 92.0347ZM289.34 90.5874L289.314 92.1489C289.221 92.132 289.116 92.1193 288.997 92.1108C288.883 92.1024 288.775 92.0981 288.673 92.0981C288.415 92.0981 288.189 92.1341 287.994 92.2061C287.799 92.2738 287.637 92.3732 287.505 92.5044C287.378 92.6356 287.281 92.7964 287.213 92.9868C287.146 93.173 287.108 93.3846 287.099 93.6216L286.737 93.5771C286.737 93.1413 286.782 92.7371 286.871 92.3647C286.959 91.9924 287.089 91.6665 287.258 91.3872C287.427 91.1079 287.639 90.8921 287.893 90.7397C288.151 90.5832 288.447 90.5049 288.781 90.5049C288.874 90.5049 288.974 90.5133 289.08 90.5303C289.19 90.543 289.276 90.562 289.34 90.5874ZM298.461 95.1006C298.461 94.9229 298.434 94.7642 298.379 94.6245C298.328 94.4806 298.233 94.3516 298.093 94.2373C297.958 94.1188 297.765 94.0046 297.516 93.8945C297.27 93.7803 296.953 93.6618 296.563 93.5391C296.132 93.4036 295.73 93.2513 295.357 93.082C294.985 92.9128 294.657 92.716 294.374 92.4917C294.094 92.2674 293.876 92.0093 293.72 91.7173C293.563 91.4211 293.485 91.0783 293.485 90.689C293.485 90.3081 293.565 89.9611 293.726 89.6479C293.891 89.3348 294.124 89.0661 294.424 88.8418C294.725 88.6133 295.078 88.4377 295.484 88.3149C295.895 88.1922 296.348 88.1309 296.843 88.1309C297.528 88.1309 298.121 88.2557 298.62 88.5054C299.124 88.755 299.513 89.0936 299.788 89.521C300.063 89.9484 300.201 90.4287 300.201 90.9619H298.461C298.461 90.6742 298.4 90.4202 298.277 90.2002C298.159 89.9801 297.977 89.8066 297.731 89.6797C297.49 89.5527 297.186 89.4893 296.817 89.4893C296.462 89.4893 296.166 89.5422 295.929 89.6479C295.696 89.7537 295.52 89.8976 295.402 90.0796C295.288 90.2616 295.23 90.4647 295.23 90.689C295.23 90.8582 295.271 91.0106 295.351 91.146C295.431 91.2772 295.552 91.402 295.713 91.5205C295.874 91.6348 296.073 91.7427 296.31 91.8442C296.551 91.9416 296.83 92.0389 297.147 92.1362C297.655 92.2886 298.1 92.4578 298.48 92.644C298.866 92.8302 299.185 93.0418 299.439 93.2788C299.697 93.5158 299.89 93.7824 300.017 94.0786C300.148 94.3748 300.213 94.7113 300.213 95.0879C300.213 95.4857 300.135 95.8411 299.979 96.1543C299.822 96.4674 299.598 96.734 299.306 96.9541C299.014 97.1742 298.662 97.3413 298.252 97.4556C297.846 97.5698 297.391 97.627 296.887 97.627C296.439 97.627 295.994 97.5677 295.554 97.4492C295.118 97.3265 294.723 97.1445 294.367 96.9033C294.012 96.6579 293.728 96.349 293.517 95.9766C293.305 95.5999 293.199 95.1598 293.199 94.6562H294.951C294.951 94.9482 294.998 95.1979 295.091 95.4053C295.188 95.6084 295.324 95.7756 295.497 95.9067C295.675 96.0337 295.882 96.1268 296.119 96.186C296.356 96.2453 296.612 96.2749 296.887 96.2749C297.243 96.2749 297.535 96.2262 297.763 96.1289C297.996 96.0273 298.169 95.8877 298.284 95.71C298.402 95.5322 298.461 95.3291 298.461 95.1006ZM305.52 95.8687V90.6318H307.208V97.5H305.622L305.52 95.8687ZM305.736 94.4468L306.256 94.4341C306.256 94.8953 306.206 95.3206 306.104 95.71C306.002 96.0993 305.844 96.4378 305.628 96.7256C305.416 97.0091 305.148 97.2313 304.822 97.3921C304.496 97.5487 304.111 97.627 303.667 97.627C303.328 97.627 303.019 97.5804 302.74 97.4873C302.46 97.39 302.219 97.2397 302.016 97.0366C301.817 96.8293 301.663 96.5648 301.553 96.2432C301.443 95.9173 301.388 95.5259 301.388 95.0688V90.6318H303.063V95.0815C303.063 95.3101 303.089 95.5005 303.14 95.6528C303.195 95.8052 303.269 95.93 303.362 96.0273C303.459 96.1204 303.571 96.1882 303.698 96.2305C303.829 96.2686 303.969 96.2876 304.117 96.2876C304.523 96.2876 304.843 96.2072 305.076 96.0464C305.313 95.8813 305.482 95.6613 305.583 95.3862C305.685 95.1069 305.736 94.7938 305.736 94.4468ZM308.688 87.75H310.37V95.9829L310.205 97.5H308.688V87.75ZM314.788 93.9961V94.1294C314.788 94.6414 314.73 95.1112 314.616 95.5386C314.506 95.966 314.339 96.3363 314.115 96.6494C313.89 96.9583 313.611 97.1995 313.277 97.373C312.947 97.5423 312.56 97.627 312.115 97.627C311.692 97.627 311.324 97.5444 311.011 97.3794C310.702 97.2144 310.442 96.9816 310.23 96.6812C310.018 96.3765 309.849 96.0189 309.722 95.6084C309.595 95.1937 309.5 94.7409 309.437 94.25V93.8882C309.5 93.3931 309.595 92.9403 309.722 92.5298C309.849 92.1193 310.018 91.7617 310.23 91.457C310.442 91.1523 310.702 90.9175 311.011 90.7524C311.32 90.5874 311.684 90.5049 312.103 90.5049C312.551 90.5049 312.943 90.5916 313.277 90.7651C313.615 90.9344 313.895 91.1756 314.115 91.4888C314.339 91.7977 314.506 92.1659 314.616 92.5933C314.73 93.0164 314.788 93.484 314.788 93.9961ZM313.105 94.1294V93.9961C313.105 93.7041 313.082 93.429 313.036 93.1709C312.989 92.9085 312.913 92.6779 312.807 92.479C312.701 92.2801 312.557 92.1235 312.375 92.0093C312.194 91.895 311.965 91.8379 311.69 91.8379C311.428 91.8379 311.203 91.8823 311.017 91.9712C310.835 92.0601 310.683 92.1828 310.56 92.3394C310.442 92.4959 310.348 92.68 310.281 92.8916C310.217 93.1032 310.175 93.3317 310.154 93.5771V94.5674C310.183 94.8932 310.253 95.1873 310.363 95.4497C310.473 95.7078 310.636 95.9131 310.852 96.0654C311.072 96.2178 311.356 96.2939 311.703 96.2939C311.973 96.2939 312.2 96.241 312.382 96.1353C312.564 96.0252 312.708 95.8729 312.813 95.6782C312.919 95.4793 312.993 95.2487 313.036 94.9863C313.082 94.724 313.105 94.4383 313.105 94.1294ZM319.783 95.6211C319.783 95.4772 319.745 95.3481 319.669 95.2339C319.593 95.1196 319.449 95.016 319.237 94.9229C319.03 94.8255 318.725 94.7345 318.323 94.6499C317.968 94.5737 317.64 94.4785 317.339 94.3643C317.039 94.25 316.781 94.1125 316.565 93.9517C316.349 93.7866 316.18 93.5941 316.057 93.374C315.939 93.1497 315.879 92.8916 315.879 92.5996C315.879 92.3161 315.941 92.0495 316.063 91.7998C316.186 91.5459 316.364 91.3237 316.597 91.1333C316.829 90.9386 317.113 90.7863 317.447 90.6763C317.782 90.562 318.158 90.5049 318.577 90.5049C319.161 90.5049 319.663 90.6001 320.082 90.7905C320.505 90.981 320.828 91.2433 321.053 91.5776C321.277 91.9077 321.389 92.2801 321.389 92.6948H319.713C319.713 92.5129 319.671 92.3478 319.586 92.1997C319.506 92.0516 319.381 91.9331 319.212 91.8442C319.043 91.7511 318.829 91.7046 318.571 91.7046C318.338 91.7046 318.141 91.7427 317.98 91.8188C317.824 91.895 317.705 91.9945 317.625 92.1172C317.545 92.2399 317.504 92.3753 317.504 92.5234C317.504 92.6335 317.526 92.7329 317.568 92.8218C317.614 92.9064 317.688 92.9847 317.79 93.0566C317.892 93.1286 318.029 93.1942 318.203 93.2534C318.38 93.3127 318.598 93.3698 318.856 93.4248C319.368 93.5264 319.815 93.6618 320.196 93.8311C320.581 93.9961 320.881 94.2161 321.097 94.4912C321.313 94.7663 321.421 95.1175 321.421 95.5449C321.421 95.8496 321.355 96.1289 321.224 96.3828C321.093 96.6325 320.903 96.8504 320.653 97.0366C320.403 97.2228 320.105 97.3688 319.758 97.4746C319.411 97.5762 319.019 97.627 318.583 97.627C317.953 97.627 317.42 97.5148 316.984 97.2905C316.548 97.062 316.218 96.7743 315.994 96.4272C315.769 96.076 315.657 95.7121 315.657 95.3354H317.263C317.276 95.6021 317.348 95.8158 317.479 95.9766C317.61 96.1374 317.775 96.2537 317.974 96.3257C318.177 96.3934 318.391 96.4272 318.615 96.4272C318.869 96.4272 319.083 96.3934 319.256 96.3257C319.43 96.2537 319.561 96.1585 319.65 96.04C319.739 95.9173 319.783 95.7777 319.783 95.6211ZM325.515 96.3066C325.752 96.3066 325.964 96.2601 326.15 96.167C326.336 96.0739 326.484 95.9427 326.594 95.7734C326.708 95.6042 326.77 95.4074 326.778 95.1831H328.359C328.35 95.6486 328.219 96.0654 327.965 96.4336C327.711 96.8018 327.373 97.0938 326.95 97.3096C326.531 97.5212 326.061 97.627 325.541 97.627C325.012 97.627 324.55 97.5381 324.157 97.3604C323.763 97.1826 323.435 96.9351 323.173 96.6177C322.915 96.3003 322.72 95.9321 322.589 95.5132C322.462 95.0942 322.398 94.6457 322.398 94.1675V93.9644C322.398 93.4862 322.462 93.0376 322.589 92.6187C322.72 92.1997 322.915 91.8315 323.173 91.5142C323.435 91.1968 323.763 90.9492 324.157 90.7715C324.55 90.5938 325.009 90.5049 325.534 90.5049C326.089 90.5049 326.575 90.6128 326.994 90.8286C327.417 91.0444 327.747 91.3491 327.984 91.7427C328.226 92.1362 328.35 92.5996 328.359 93.1328H326.778C326.77 92.8874 326.715 92.6673 326.613 92.4727C326.512 92.278 326.368 92.1214 326.182 92.0029C325.995 91.8844 325.769 91.8252 325.502 91.8252C325.219 91.8252 324.982 91.8844 324.792 92.0029C324.605 92.1214 324.459 92.2843 324.354 92.4917C324.252 92.6948 324.18 92.9233 324.138 93.1772C324.1 93.4269 324.081 93.6893 324.081 93.9644V94.1675C324.081 94.4468 324.1 94.7134 324.138 94.9673C324.18 95.2212 324.252 95.4497 324.354 95.6528C324.459 95.8517 324.605 96.0104 324.792 96.1289C324.982 96.2474 325.223 96.3066 325.515 96.3066ZM331.152 92.0347V97.5H329.476V90.6318H331.063L331.152 92.0347ZM333.24 90.5874L333.215 92.1489C333.122 92.132 333.016 92.1193 332.897 92.1108C332.783 92.1024 332.675 92.0981 332.574 92.0981C332.316 92.0981 332.089 92.1341 331.895 92.2061C331.7 92.2738 331.537 92.3732 331.406 92.5044C331.279 92.6356 331.181 92.7964 331.114 92.9868C331.046 93.173 331.008 93.3846 331 93.6216L330.638 93.5771C330.638 93.1413 330.682 92.7371 330.771 92.3647C330.86 91.9924 330.989 91.6665 331.158 91.3872C331.327 91.1079 331.539 90.8921 331.793 90.7397C332.051 90.5832 332.347 90.5049 332.682 90.5049C332.775 90.5049 332.874 90.5133 332.98 90.5303C333.09 90.543 333.177 90.562 333.24 90.5874ZM335.938 90.6318V97.5H334.256V90.6318H335.938ZM334.142 88.8354C334.142 88.5858 334.226 88.3784 334.396 88.2134C334.569 88.0483 334.802 87.9658 335.094 87.9658C335.386 87.9658 335.616 88.0483 335.786 88.2134C335.959 88.3784 336.046 88.5858 336.046 88.8354C336.046 89.0809 335.959 89.2861 335.786 89.4512C335.616 89.6162 335.386 89.6987 335.094 89.6987C334.802 89.6987 334.569 89.6162 334.396 89.4512C334.226 89.2861 334.142 89.0809 334.142 88.8354ZM337.531 87.75H339.213V95.9829L339.048 97.5H337.531V87.75ZM343.631 93.9961V94.1294C343.631 94.6414 343.574 95.1112 343.46 95.5386C343.35 95.966 343.183 96.3363 342.958 96.6494C342.734 96.9583 342.455 97.1995 342.121 97.373C341.791 97.5423 341.403 97.627 340.959 97.627C340.536 97.627 340.168 97.5444 339.854 97.3794C339.546 97.2144 339.285 96.9816 339.074 96.6812C338.862 96.3765 338.693 96.0189 338.566 95.6084C338.439 95.1937 338.344 94.7409 338.28 94.25V93.8882C338.344 93.3931 338.439 92.9403 338.566 92.5298C338.693 92.1193 338.862 91.7617 339.074 91.457C339.285 91.1523 339.546 90.9175 339.854 90.7524C340.163 90.5874 340.527 90.5049 340.946 90.5049C341.395 90.5049 341.786 90.5916 342.121 90.7651C342.459 90.9344 342.738 91.1756 342.958 91.4888C343.183 91.7977 343.35 92.1659 343.46 92.5933C343.574 93.0164 343.631 93.484 343.631 93.9961ZM341.949 94.1294V93.9961C341.949 93.7041 341.926 93.429 341.879 93.1709C341.833 92.9085 341.757 92.6779 341.651 92.479C341.545 92.2801 341.401 92.1235 341.219 92.0093C341.037 91.895 340.809 91.8379 340.534 91.8379C340.271 91.8379 340.047 91.8823 339.861 91.9712C339.679 92.0601 339.527 92.1828 339.404 92.3394C339.285 92.4959 339.192 92.68 339.125 92.8916C339.061 93.1032 339.019 93.3317 338.998 93.5771V94.5674C339.027 94.8932 339.097 95.1873 339.207 95.4497C339.317 95.7078 339.48 95.9131 339.696 96.0654C339.916 96.2178 340.199 96.2939 340.546 96.2939C340.817 96.2939 341.044 96.241 341.226 96.1353C341.408 96.0252 341.551 95.8729 341.657 95.6782C341.763 95.4793 341.837 95.2487 341.879 94.9863C341.926 94.724 341.949 94.4383 341.949 94.1294ZM347.935 97.627C347.415 97.627 346.947 97.5423 346.532 97.373C346.118 97.2038 345.764 96.9689 345.472 96.6685C345.184 96.3638 344.962 96.0104 344.806 95.6084C344.653 95.2021 344.577 94.7663 344.577 94.3008V94.0469C344.577 93.5179 344.653 93.0376 344.806 92.606C344.958 92.1701 345.174 91.7956 345.453 91.4824C345.732 91.1693 346.067 90.9281 346.456 90.7588C346.845 90.5895 347.275 90.5049 347.745 90.5049C348.231 90.5049 348.661 90.5874 349.033 90.7524C349.406 90.9132 349.717 91.1418 349.966 91.438C350.216 91.7342 350.404 92.0897 350.531 92.5044C350.658 92.9149 350.722 93.3698 350.722 93.8691V94.5737H345.339V93.4185H349.071V93.2915C349.063 93.0249 349.012 92.7816 348.919 92.5615C348.826 92.3372 348.682 92.1595 348.487 92.0283C348.293 91.8929 348.041 91.8252 347.732 91.8252C347.482 91.8252 347.264 91.8802 347.078 91.9902C346.896 92.096 346.744 92.2484 346.621 92.4473C346.503 92.6419 346.414 92.8747 346.354 93.1455C346.295 93.4163 346.266 93.7168 346.266 94.0469V94.3008C346.266 94.5885 346.304 94.8551 346.38 95.1006C346.46 95.346 346.577 95.5597 346.729 95.7417C346.886 95.9194 347.072 96.0591 347.288 96.1606C347.508 96.258 347.757 96.3066 348.037 96.3066C348.388 96.3066 348.705 96.2389 348.989 96.1035C349.277 95.9639 349.526 95.7586 349.738 95.4878L350.582 96.3638C350.438 96.5754 350.243 96.7785 349.998 96.9731C349.757 97.1678 349.465 97.3265 349.122 97.4492C348.779 97.5677 348.384 97.627 347.935 97.627ZM353.521 92.0347V97.5H351.845V90.6318H353.432L353.521 92.0347ZM355.609 90.5874L355.584 92.1489C355.491 92.132 355.385 92.1193 355.267 92.1108C355.152 92.1024 355.044 92.0981 354.943 92.0981C354.685 92.0981 354.458 92.1341 354.264 92.2061C354.069 92.2738 353.906 92.3732 353.775 92.5044C353.648 92.6356 353.551 92.7964 353.483 92.9868C353.415 93.173 353.377 93.3846 353.369 93.6216L353.007 93.5771C353.007 93.1413 353.051 92.7371 353.14 92.3647C353.229 91.9924 353.358 91.6665 353.527 91.3872C353.697 91.1079 353.908 90.8921 354.162 90.7397C354.42 90.5832 354.716 90.5049 355.051 90.5049C355.144 90.5049 355.243 90.5133 355.349 90.5303C355.459 90.543 355.546 90.562 355.609 90.5874ZM360.307 95.6211C360.307 95.4772 360.269 95.3481 360.192 95.2339C360.116 95.1196 359.972 95.016 359.761 94.9229C359.553 94.8255 359.249 94.7345 358.847 94.6499C358.491 94.5737 358.163 94.4785 357.863 94.3643C357.562 94.25 357.304 94.1125 357.088 93.9517C356.873 93.7866 356.703 93.5941 356.581 93.374C356.462 93.1497 356.403 92.8916 356.403 92.5996C356.403 92.3161 356.464 92.0495 356.587 91.7998C356.71 91.5459 356.887 91.3237 357.12 91.1333C357.353 90.9386 357.636 90.7863 357.971 90.6763C358.305 90.562 358.682 90.5049 359.101 90.5049C359.685 90.5049 360.186 90.6001 360.605 90.7905C361.028 90.981 361.352 91.2433 361.576 91.5776C361.8 91.9077 361.913 92.2801 361.913 92.6948H360.237C360.237 92.5129 360.194 92.3478 360.11 92.1997C360.029 92.0516 359.905 91.9331 359.735 91.8442C359.566 91.7511 359.352 91.7046 359.094 91.7046C358.861 91.7046 358.665 91.7427 358.504 91.8188C358.347 91.895 358.229 91.9945 358.148 92.1172C358.068 92.2399 358.028 92.3753 358.028 92.5234C358.028 92.6335 358.049 92.7329 358.091 92.8218C358.138 92.9064 358.212 92.9847 358.313 93.0566C358.415 93.1286 358.553 93.1942 358.726 93.2534C358.904 93.3127 359.122 93.3698 359.38 93.4248C359.892 93.5264 360.338 93.6618 360.719 93.8311C361.104 93.9961 361.405 94.2161 361.621 94.4912C361.836 94.7663 361.944 95.1175 361.944 95.5449C361.944 95.8496 361.879 96.1289 361.748 96.3828C361.616 96.6325 361.426 96.8504 361.176 97.0366C360.927 97.2228 360.628 97.3688 360.281 97.4746C359.934 97.5762 359.543 97.627 359.107 97.627C358.476 97.627 357.943 97.5148 357.507 97.2905C357.071 97.062 356.741 96.7743 356.517 96.4272C356.293 96.076 356.181 95.7121 356.181 95.3354H357.787C357.799 95.6021 357.871 95.8158 358.002 95.9766C358.134 96.1374 358.299 96.2537 358.498 96.3257C358.701 96.3934 358.914 96.4272 359.139 96.4272C359.393 96.4272 359.606 96.3934 359.78 96.3257C359.953 96.2537 360.084 96.1585 360.173 96.04C360.262 95.9173 360.307 95.7777 360.307 95.6211Z" fill="white"/>
<path d="M84 45C84 43.3431 85.3431 42 87 42H148C149.657 42 151 43.3431 151 45V47C151 48.6569 149.657 50 148 50H87C85.3431 50 84 48.6569 84 47V45Z" fill="#E2E4EE"/>
<path d="M332 45C332 43.3431 333.343 42 335 42H441C442.657 42 444 43.3431 444 45V47C444 48.6569 442.657 50 441 50H335C333.343 50 332 48.6569 332 47V45Z" fill="#514D4D"/>
<path d="M287 45C287 43.3431 288.343 42 290 42H317C318.657 42 320 43.3431 320 45V47C320 48.6569 318.657 50 317 50H290C288.343 50 287 48.6569 287 47V45Z" fill="#514D4D"/>
<path d="M456 45C456 43.3431 457.343 42 459 42H486C487.657 42 489 43.3431 489 45V47C489 48.6569 487.657 50 486 50H459C457.343 50 456 48.6569 456 47V45Z" fill="#514D4D"/>
<path d="M163 45C163 43.3431 164.343 42 166 42H272C273.657 42 275 43.3431 275 45V47C275 48.6569 273.657 50 272 50H166C164.343 50 163 48.6569 163 47V45Z" fill="#514D4D"/>
</g>
<defs>
<filter id="filter0_d_226_1117" x="13" y="13.7905" width="576" height="190.091" filterUnits="userSpaceOnUse" color-interpolation-filters="sRGB">
<feFlood flood-opacity="0" result="BackgroundImageFix"/>
<feColorMatrix in="SourceAlpha" type="matrix" values="0 0 0 0 0 0 0 0 0 0 0 0 0 0 0 0 0 0 127 0" result="hardAlpha"/>
<feOffset dx="-5" dy="6"/>
<feGaussianBlur stdDeviation="9.5"/>
<feColorMatrix type="matrix" values="0 0 0 0 1 0 0 0 0 1 0 0 0 0 1 0 0 0 0.25 0"/>
<feBlend mode="normal" in2="BackgroundImageFix" result="effect1_dropShadow_226_1117"/>
<feBlend mode="normal" in="SourceGraphic" in2="effect1_dropShadow_226_1117" result="shape"/>
</filter>
<filter id="filter1_d_226_1117" x="0" y="0.790527" width="597.976" height="212.091" filterUnits="userSpaceOnUse" color-interpolation-filters="sRGB">
<feFlood flood-opacity="0" result="BackgroundImageFix"/>
<feColorMatrix in="SourceAlpha" type="matrix" values="0 0 0 0 0 0 0 0 0 0 0 0 0 0 0 0 0 0 127 0" result="hardAlpha"/>
<feOffset dx="-7" dy="4"/>
<feGaussianBlur stdDeviation="15"/>
<feComposite in2="hardAlpha" operator="out"/>
<feColorMatrix type="matrix" values="0 0 0 0 0 0 0 0 0 0 0 0 0 0 0 0 0 0 0.25 0"/>
<feBlend mode="normal" in2="BackgroundImageFix" result="effect1_dropShadow_226_1117"/>
<feBlend mode="normal" in="SourceGraphic" in2="effect1_dropShadow_226_1117" result="shape"/>
</filter>
<clipPath id="clip0_226_1117">
<rect width="18" height="18" fill="white" transform="translate(220.333 137)"/>
</clipPath>
</defs>
</svg>
