<svg width="110" height="76" viewBox="0 0 110 76" fill="none" xmlns="http://www.w3.org/2000/svg">
<path d="M56.7973 75.031C55.7086 75.031 54.2569 74.6653 53.1681 74.2996L50.6277 72.8367C49.9018 72.471 49.5389 71.3739 49.9018 70.2768C50.2647 69.5453 51.3535 69.1796 52.4423 69.5453L54.9827 71.0082C55.7086 71.3739 56.7973 71.7396 57.8861 71.3739C58.6119 71.3739 59.3378 71.0082 59.7007 69.911C60.4265 68.8139 60.0636 67.3511 59.3378 66.6196C58.6119 65.8882 58.6119 64.7911 59.3378 64.0597C60.0636 63.3282 60.7894 63.3282 61.5153 63.6939L66.9591 66.6196C68.4108 67.3511 70.5883 66.9854 71.3141 65.5225C72.04 64.4254 71.677 62.9625 70.9512 62.2311L66.2332 58.574C65.5074 57.8425 65.1445 57.1111 65.8703 56.014C66.2332 55.2826 67.322 54.9169 68.4108 55.2826L77.8467 60.4025C78.5725 60.7682 79.6613 60.7682 80.0242 60.7682C80.7501 60.4025 81.4759 60.0368 81.8388 58.9397C82.5647 57.4768 82.2017 55.6483 80.7501 54.9169L74.5804 50.894C73.8546 50.5283 73.4917 49.4312 73.8546 48.334C74.2175 47.6026 75.3063 47.2369 76.395 47.6026L88.7343 53.8197C90.186 54.5511 92.0006 54.1854 93.0894 52.3569C93.8152 50.894 93.4523 48.6997 91.6377 47.9683C90.9118 47.6026 90.5489 46.5055 90.9118 45.4083C91.2747 44.6769 92.3635 44.3112 93.4523 44.6769C96.7186 46.5055 98.1702 50.894 96.3556 54.1854C94.541 57.4768 90.5489 58.9397 87.2826 57.1111L85.8309 56.3797C86.1939 57.8426 85.8309 59.3054 85.1051 60.7682C84.3793 62.2311 82.5647 63.6939 81.113 64.0597C79.2984 64.4254 77.4838 64.4254 76.0321 63.6939L75.6692 63.3282C75.6692 64.4254 75.6692 65.8882 74.9433 66.9854C73.1287 70.2768 68.7737 71.3739 65.5074 69.5453L63.6928 68.4482C63.6928 69.5453 63.3299 70.6425 62.967 71.3739C62.2411 72.8367 60.7894 73.9339 58.9748 74.2996C57.8861 75.031 57.1602 75.031 56.7973 75.031Z" fill="#087CA7"/>
<path d="M34.6592 18.3458L19.7795 15.7858C19.0537 15.4201 18.3278 14.6886 18.6907 13.5915C19.0537 12.4944 19.7795 12.1287 20.8683 12.1287L35.3851 14.6886C36.4738 15.0544 37.1997 15.7858 36.8368 16.8829C36.4738 17.9801 35.748 18.3458 34.6592 18.3458Z" fill="#087CA7"/>
<path d="M92.3635 48.3339C92.0006 48.3339 91.6377 48.3339 91.6377 47.9682L79.6613 41.3854L57.5232 27.8541C56.7973 27.4884 56.4344 26.0255 56.7973 25.2941C57.1602 24.5627 58.6119 24.1969 59.3378 24.5627L81.4759 38.094L93.4523 44.6768C94.1781 45.0425 94.541 46.1397 94.1781 47.2368C93.8152 47.9682 93.0894 48.3339 92.3635 48.3339Z" fill="#087CA7"/>
<path d="M41.1918 38.4598C38.6513 38.4598 36.1109 37.3627 34.2963 35.1684C33.5705 34.8027 33.5705 34.0713 33.9334 33.7056C34.6592 31.877 35.3851 29.6828 35.748 28.2199C36.8367 25.2942 37.5626 23.0999 37.9255 21.2714C37.9255 20.9057 38.2884 20.1742 38.6513 20.1742L40.4659 19.0771C44.4581 15.7857 51.7165 10.6657 55.3457 8.83717C57.5232 7.74003 69.8625 10.3 79.2984 12.4943C79.6613 12.4943 79.6613 12.4943 80.0243 12.86C80.3872 13.2257 80.7501 13.5914 81.113 13.9571L88.0085 12.1286C89.0973 11.7629 89.8231 12.4943 90.186 13.2257C90.549 14.3228 89.8231 15.0543 89.0973 15.42L81.113 17.6143C80.3872 17.6143 79.6613 17.6143 79.2984 17.2485C78.9355 16.8828 78.5726 16.5171 78.2097 16.1514C68.7737 13.9571 58.249 12.1286 56.4344 12.4943C53.1682 13.9571 45.9097 18.7114 42.2805 21.6371L41.1918 22.3685C40.8289 24.5628 40.103 26.7571 39.0143 29.317C38.6513 30.7799 37.9255 32.2427 37.5626 33.7056C39.3772 35.1684 40.8289 35.1684 41.9176 35.1684C43.3693 34.8027 45.1839 34.0713 45.9097 32.6084C46.6356 31.5113 47.3614 29.317 48.0873 27.4885C48.4502 26.7571 48.8131 26.3913 49.539 26.0256C50.6277 26.0256 54.9828 24.9285 57.5232 24.1971C58.612 23.8314 59.3378 24.5628 59.7007 25.6599C60.0636 26.7571 59.3378 27.4885 58.249 27.8542C56.4344 28.2199 52.8052 28.9513 50.9906 29.317C50.6277 31.1456 49.539 32.9742 48.8131 34.437C47.3614 36.997 44.821 38.4598 42.2805 38.8256C41.9176 38.4598 41.5547 38.4598 41.1918 38.4598Z" fill="#087CA7"/>
<path d="M46.9985 75.031C45.5468 75.031 43.7322 74.2996 42.6435 73.2025L41.5547 72.1053C40.4659 71.0082 39.7401 69.5454 39.7401 67.7168C39.7401 66.254 40.4659 64.4254 41.5547 63.3283L44.0951 61.134C46.2727 58.9397 50.2648 58.9397 52.4423 61.134L53.5311 62.2311C55.7086 64.4254 55.7086 68.4482 53.5311 70.6425L50.9906 72.8368C49.9019 74.2996 48.4502 75.031 46.9985 75.031ZM48.0873 62.9625C47.3614 62.9625 46.9985 63.3283 46.2727 63.694L43.7322 65.8882C43.3693 66.254 43.0064 66.9854 43.0064 67.7168C43.0064 68.4482 43.3693 68.8139 43.7322 69.5454L44.821 70.6425C45.9097 71.7396 47.3614 71.7396 48.0873 70.6425L50.6277 68.4482C51.7165 67.3511 51.7165 65.8882 50.6277 65.1568L49.5389 64.0597C49.176 63.3283 48.8131 62.9625 48.0873 62.9625Z" fill="#087CA7"/>
<path d="M21.594 53.0884C20.1424 53.0884 18.3278 52.357 17.239 51.2599L16.1502 50.1627C13.9727 47.9685 13.9727 43.9456 16.1502 41.7514L18.6907 39.5571C20.8682 37.3628 24.8603 37.3628 27.0378 39.5571L28.1266 40.6542C29.5783 41.3856 29.9412 42.8485 29.9412 44.677C29.9412 46.1399 29.2154 47.9685 28.1266 49.0656L25.5862 51.2599C24.8603 52.357 23.4086 53.0884 21.594 53.0884ZM23.0457 41.0199C22.3199 41.0199 21.957 41.3856 21.2311 41.7514L19.0536 43.9456C17.9648 45.0428 17.9648 46.5056 19.0536 47.237L20.1424 48.3342C21.2311 49.4313 22.6828 49.4313 23.4086 48.3342L25.9491 46.1399C26.312 45.7742 26.312 45.4085 26.312 44.677C26.312 43.9456 25.9491 43.5799 25.5862 42.8485L24.4974 41.7514C24.1345 41.3856 23.4086 41.0199 23.0457 41.0199Z" fill="#087CA7"/>
<path d="M28.1266 62.5971C28.1266 62.5971 27.7637 62.5971 28.1266 62.5971C26.312 62.5971 24.8603 61.8657 23.7716 60.7686L22.6828 59.6714C21.594 58.5743 20.8682 57.1115 20.8682 55.2829C20.8682 53.82 21.594 51.9915 22.6828 50.8944L27.4008 46.1401C29.5783 43.9458 33.5704 43.9458 35.7479 46.1401L36.8367 47.2372C37.9255 48.3344 38.6513 49.7972 38.6513 51.6258C38.6513 53.0886 37.9255 54.9172 36.8367 56.0143L32.1187 60.7686C31.03 61.8657 29.5783 62.5971 28.1266 62.5971ZM31.3929 48.3344C31.03 48.3344 30.3041 48.3344 29.9412 48.7001L25.2232 53.4543C24.8603 53.82 24.4974 54.5515 24.4974 55.2829C24.4974 56.0143 24.8603 56.38 25.2232 57.1115L26.312 58.2086C26.6749 58.5743 27.4008 58.94 28.1266 58.94C28.8524 58.94 29.2154 58.5743 29.9412 58.2086L34.6592 53.4543C35.0221 53.0886 35.385 52.3572 35.385 51.6258C35.385 50.8943 35.0221 50.5286 34.6592 49.7972L33.5704 48.7001C32.8446 48.3344 32.1187 48.3344 31.3929 48.3344Z" fill="#087CA7"/>
<path d="M37.5626 68.814C37.5626 68.814 37.1996 68.814 37.5626 68.814C35.748 68.814 34.2963 68.0825 33.2075 66.9854L32.1188 65.8883C31.03 64.7911 30.3042 63.3283 30.3042 61.4997C30.3042 59.6712 31.03 58.2083 32.1188 57.1112L35.748 53.4541C37.9255 51.2598 41.9176 51.2598 44.0951 53.4541L45.1839 54.5512C47.3614 56.7455 47.3614 60.7683 45.1839 62.9626L41.5547 66.6197C40.4659 68.0825 39.0142 68.814 37.5626 68.814ZM39.7401 55.6483C39.0142 55.6483 38.6513 56.014 37.9255 56.3798L34.2963 60.0369C33.9334 60.4026 33.5704 61.134 33.5704 61.8654C33.5704 62.5969 33.9334 62.9626 34.2963 63.694L35.385 64.7911C35.748 65.1568 36.4738 65.5226 37.1996 65.5226C37.9255 65.5226 38.2884 65.1568 39.0142 64.7911L42.6434 61.134C43.7322 60.0369 43.7322 58.574 42.6434 57.8426L41.5547 56.7455C41.1918 55.6483 40.4659 55.6483 39.7401 55.6483Z" fill="#087CA7"/>
<path d="M99.9848 46.1397C99.6219 46.1397 99.6219 46.1397 99.259 46.1397C98.8961 45.774 98.5331 45.4083 98.1702 45.0426L86.5568 11.3971C86.1938 10.3 86.5568 9.56854 87.6455 9.20283L107.243 1.15716C108.332 0.791449 109.058 1.15716 109.421 2.2543C109.784 3.35143 109.421 4.08286 108.332 4.81428L90.186 12.1285L100.711 42.4826L107.243 39.9226C108.332 39.5569 109.058 39.9226 109.421 41.0198C109.784 42.1169 109.421 42.8483 108.332 43.214L99.9848 46.5055C100.348 46.1397 99.9848 46.1397 99.9848 46.1397Z" fill="#087CA7"/>
<path d="M9.98062 46.1399C9.6177 46.1399 9.6177 46.1399 9.25478 46.1399L1.99637 43.5799C0.90761 43.2142 0.54469 42.1171 0.90761 41.3857C1.27053 40.2885 2.35929 39.9228 3.08513 40.2885L8.52894 42.1171L19.4165 11.763L1.99637 4.44873C1.27053 4.08302 0.54469 2.98588 0.90761 1.88875C1.27053 1.15732 2.35929 0.425898 3.44805 0.79161L22.3199 8.83727C23.0458 9.20299 23.7716 10.3001 23.4087 11.0315L11.7952 44.6771C11.4323 45.7742 10.7065 46.1399 9.98062 46.1399Z" fill="#087CA7"/>
</svg>
