<svg width="43" height="27" viewBox="0 0 43 27" fill="none" xmlns="http://www.w3.org/2000/svg">
<path d="M0.5 3.75C0.5 1.6875 2.09375 0 4.25 0H8.75C10.8125 0 12.5 1.6875 12.5 3.75V8.25C12.5 10.4062 10.8125 12 8.75 12H4.25C2.09375 12 0.5 10.4062 0.5 8.25V3.75ZM4.25 8.25H8.75V3.75H4.25V8.25ZM0.5 18.75C0.5 16.6875 2.09375 15 4.25 15H8.75C10.8125 15 12.5 16.6875 12.5 18.75V23.25C12.5 25.4062 10.8125 27 8.75 27H4.25C2.09375 27 0.5 25.4062 0.5 23.25V18.75ZM4.25 23.25H8.75V18.75H4.25V23.25ZM23.75 0C25.8125 0 27.5 1.6875 27.5 3.75V8.25C27.5 10.4062 25.8125 12 23.75 12H19.25C17.0938 12 15.5 10.4062 15.5 8.25V3.75C15.5 1.6875 17.0938 0 19.25 0H23.75ZM23.75 3.75H19.25V8.25H23.75V3.75ZM15.5 18.75C15.5 16.6875 17.0938 15 19.25 15H23.75C25.8125 15 27.5 16.6875 27.5 18.75V23.25C27.5 25.4062 25.8125 27 23.75 27H19.25C17.0938 27 15.5 25.4062 15.5 23.25V18.75ZM19.25 23.25H23.75V18.75H19.25V23.25ZM38.75 0C40.8125 0 42.5 1.6875 42.5 3.75V8.25C42.5 10.4062 40.8125 12 38.75 12H34.25C32.0938 12 30.5 10.4062 30.5 8.25V3.75C30.5 1.6875 32.0938 0 34.25 0H38.75ZM38.75 3.75H34.25V8.25H38.75V3.75ZM30.5 18.75C30.5 16.6875 32.0938 15 34.25 15H38.75C40.8125 15 42.5 16.6875 42.5 18.75V23.25C42.5 25.4062 40.8125 27 38.75 27H34.25C32.0938 27 30.5 25.4062 30.5 23.25V18.75ZM34.25 23.25H38.75V18.75H34.25V23.25Z" fill="#E42101"/>
</svg>
