<svg width="92" height="78" viewBox="0 0 92 78" fill="none" xmlns="http://www.w3.org/2000/svg">
<path fillRule="evenodd" clipRule="evenodd" d="M52.1696 33.0351C52.1696 32.1994 52.8471 31.522 53.6827 31.522H64.8372C65.4813 31.522 66.0547 31.9297 66.2663 32.538C66.2709 32.5512 66.2766 32.5671 66.2832 32.5855C66.3429 32.7528 66.4747 33.1216 66.5143 33.4958C66.5739 34.0572 66.316 34.605 65.8454 34.9168C65.0166 35.4659 64.4771 36.3961 64.4771 37.4442C64.4771 39.1142 65.8332 40.4704 67.5033 40.4704C69.1733 40.4704 70.5294 39.1142 70.5294 37.4442C70.5294 36.3832 69.9798 35.4501 69.1322 34.9014C68.6512 34.59 68.3874 34.0336 68.4506 33.4641C68.4895 33.1143 68.6135 32.756 68.6664 32.6035C68.6729 32.5845 68.6784 32.5688 68.6824 32.5566C68.8884 31.9387 69.4666 31.522 70.1179 31.522H80.9183C81.7539 31.522 82.4314 32.1994 82.4314 33.0351V41.3769C83.3404 40.8261 84.4073 40.5067 85.5513 40.5067C88.8927 40.5067 91.6037 43.2177 91.6037 46.559C91.6037 49.9003 88.8927 52.6114 85.5513 52.6114C84.4078 52.6114 83.3407 52.292 82.4314 51.7412V60.2706C82.4314 61.1063 81.7539 61.7837 80.9183 61.7837H72.817C73.2884 62.6416 73.5586 63.6273 73.5586 64.6797C73.5586 68.0211 70.8476 70.7321 67.5063 70.7321C64.165 70.7321 61.4539 68.0211 61.4539 64.6797C61.4539 63.6292 61.7228 62.6428 62.1935 61.7837H53.6827C52.8471 61.7837 52.1696 61.1063 52.1696 60.2706V50.7987C52.1696 50.1997 52.523 49.657 53.0709 49.4148C53.4834 49.2324 53.9174 49.108 54.3599 49.0588C54.9243 48.9961 55.4762 49.2547 55.7893 49.7284C56.3384 50.5591 57.2681 51.0983 58.3158 51.0983C59.9858 51.0983 61.342 49.7421 61.342 48.0721C61.342 46.4021 59.9858 45.0459 58.3158 45.0459C57.2548 45.0459 56.3217 45.5956 55.773 46.4432C55.4639 46.9207 54.913 47.1845 54.3471 47.126C53.9085 47.0806 53.4878 46.959 53.0976 46.7954C52.5354 46.5596 52.1696 46.0096 52.1696 45.4V33.0351ZM55.1958 34.5481V42.8901C56.1035 42.3395 57.1692 42.0198 58.3158 42.0198C61.6571 42.0198 64.3681 44.7308 64.3681 48.0721C64.3681 51.4134 61.6571 54.1245 58.3158 54.1245C57.1721 54.1245 56.1053 53.8051 55.1958 53.2541V58.7575H64.8402C65.4843 58.7575 66.0577 59.1652 66.2693 59.7735C66.2739 59.7868 66.2796 59.8027 66.2862 59.821C66.3459 59.9883 66.4777 60.3572 66.5174 60.7314C66.577 61.2933 66.3185 61.8417 65.847 62.1533C65.018 62.7012 64.4801 63.63 64.4801 64.6797C64.4801 66.3498 65.8363 67.7059 67.5063 67.7059C69.1763 67.7059 70.5325 66.3498 70.5325 64.6797C70.5325 63.6212 69.9824 62.6853 69.1352 62.1369C68.6614 61.8302 68.3977 61.2852 68.4512 60.7233C68.4861 60.3572 68.6217 59.9731 68.6712 59.8329C68.6775 59.8153 68.6823 59.8015 68.6855 59.7921C68.8914 59.1743 69.4696 58.7575 70.1209 58.7575H79.4052V49.2886C79.4052 48.6875 79.7611 48.1434 80.3118 47.9024C80.7213 47.7233 81.1513 47.5979 81.6003 47.5486C82.1644 47.4866 82.7158 47.7454 83.0284 48.219C83.5739 49.0454 84.5028 49.5852 85.5513 49.5852C87.2214 49.5852 88.5775 48.229 88.5775 46.559C88.5775 44.889 87.2214 43.5328 85.5513 43.5328C84.4912 43.5328 83.5541 44.0842 83.0099 44.9279C82.7011 45.4068 82.1495 45.6715 81.5827 45.6129C81.1469 45.5678 80.7219 45.4471 80.3277 45.28C79.7685 45.0429 79.4052 44.4944 79.4052 43.8869V34.5481H72.8146C73.2856 35.4053 73.5556 36.3906 73.5556 37.4442C73.5556 40.7855 70.8446 43.4965 67.5033 43.4965C64.1619 43.4965 61.4509 40.7855 61.4509 37.4442C61.4509 36.3931 61.7207 35.4068 62.1916 34.5481H55.1958Z" fill="#087CA7"/>
<path fillRule="evenodd" clipRule="evenodd" d="M44.3743 3.71568C44.8793 3.05158 45.8266 2.92159 46.4918 3.42511C46.5371 3.45937 46.6219 3.51394 46.7379 3.58859C47.4839 4.06874 49.5208 5.37974 50.6358 7.46159C51.3221 8.74284 51.6928 10.3206 51.4031 12.192C51.1176 14.0363 50.2058 16.0735 48.4922 18.339L48.492 18.3393L43.5503 24.8697C43.046 25.5361 42.097 25.6675 41.4307 25.1633C40.7643 24.659 40.6329 23.71 41.1371 23.0437L46.0787 16.5134C47.5879 14.5181 48.2252 12.9398 48.4126 11.729C48.5958 10.5453 48.3634 9.62833 47.9682 8.89037C47.433 7.89112 46.6422 7.2187 45.9095 6.69622L27.1069 31.4212C26.6011 32.0864 25.6518 32.2156 24.9866 31.7097C24.3214 31.2039 24.1923 30.2546 24.6981 29.5894L44.3743 3.71568Z" fill="#087CA7"/>
<path fillRule="evenodd" clipRule="evenodd" d="M35.2218 1.50264C35.6073 0.770691 36.5092 0.484023 37.2465 0.85906C37.3027 0.887643 37.4021 0.928386 37.5361 0.983382C38.9044 1.54462 43.8913 3.59025 43.5883 9.34433C43.5443 10.1788 42.8322 10.8197 41.9977 10.7757C41.1632 10.7318 40.5223 10.0197 40.5663 9.18518C40.7218 6.2327 38.8097 4.95799 37.2281 4.18739L27.4106 22.828C27.0212 23.5674 26.1062 23.8511 25.3668 23.4617C24.6274 23.0723 24.3437 22.1573 24.7331 21.4179L35.2218 1.50264Z" fill="#087CA7"/>
<path fillRule="evenodd" clipRule="evenodd" d="M37.9673 22.96C38.2546 22.6318 38.6696 22.4436 39.1058 22.4436H46.9314C47.7671 22.4436 48.4445 23.121 48.4445 23.9567C48.4445 24.7923 47.7671 25.4698 46.9314 25.4698H39.7921L28.1819 38.7315C27.6314 39.3603 26.6755 39.4237 26.0468 38.8733C25.418 38.3229 25.3545 37.3669 25.905 36.7382L37.9673 22.96Z" fill="#087CA7"/>
<path fillRule="evenodd" clipRule="evenodd" d="M22.6212 5.23663C25.0107 6.55596 26.6379 9.431 26.6379 14.7663C26.6379 15.602 25.9605 16.2794 25.1249 16.2794C24.2892 16.2794 23.6118 15.602 23.6118 14.7663C23.6118 10.0002 22.1931 8.45708 21.1585 7.88581C20.445 7.49184 19.7215 7.40265 19.0332 7.4007V31.4103C19.0332 31.7659 18.9079 32.1101 18.6794 32.3826L3.39722 50.6032C2.86021 51.2434 1.90584 51.3271 1.26557 50.7901C0.625307 50.2531 0.541603 49.2987 1.07861 48.6585L16.007 30.8597V5.93896C16.007 5.10685 16.6789 4.4309 17.511 4.42591C17.5673 4.42557 17.6575 4.41902 17.7767 4.41038C18.5873 4.3516 20.7362 4.19579 22.6212 5.23663Z" fill="#087CA7"/>
<path fillRule="evenodd" clipRule="evenodd" d="M40.8791 23.9565C40.8792 23.1208 41.5567 22.4435 42.3924 22.4436L62.6496 22.4466C63.4851 22.4468 64.1624 23.1242 64.1624 23.9597C64.1624 24.0164 64.1701 24.1167 64.1805 24.2541C64.2479 25.1381 64.432 27.5536 63.4447 29.6989C62.8372 31.0192 61.8028 32.2667 60.1356 33.1647C58.4925 34.0496 56.3177 34.5513 53.477 34.5513L45.6178 34.5486L37.0389 46.5335V54.521L42.0865 58.7604L47.3785 58.7577C50.2192 58.7577 52.3948 59.2594 54.0378 60.1443C55.705 61.0423 56.7394 62.2898 57.347 63.6101C58.3343 65.7554 58.1502 68.1709 58.0828 69.0549C58.0723 69.1922 58.0647 69.2926 58.0647 69.3493C58.0647 70.1849 57.3873 70.8623 56.5517 70.8624L9.36012 70.8653L3.31299 76.9717C2.72498 77.5654 1.76696 77.5701 1.17319 76.9821C0.579422 76.3941 0.574755 75.4361 1.16277 74.8423L7.6539 68.2876C7.93805 68.0007 8.3251 67.8392 8.72892 67.8392L55.1051 67.8363C55.1304 66.9378 55.071 65.9032 54.5979 64.8751C54.2481 64.1149 53.6573 63.3765 52.6029 62.8087C51.5245 62.2278 49.8816 61.7839 47.3801 61.7838C47.3798 61.7838 47.3803 61.7838 47.3801 61.7838L41.5365 61.7869C41.1803 61.787 40.8354 61.6615 40.5626 61.4324L34.5526 56.3848C34.2103 56.0973 34.0127 55.6731 34.0127 55.2261V46.0477C34.0127 45.7319 34.1115 45.4239 34.2954 45.167L43.61 32.1545C43.8942 31.7574 44.3526 31.5219 44.8409 31.5221L53.477 31.5251C53.4772 31.5251 53.4768 31.5251 53.477 31.5251C55.9787 31.5251 57.6222 31.0812 58.7006 30.5003C59.755 29.9325 60.3458 29.1941 60.6957 28.4338C61.1688 27.4058 61.2282 26.3711 61.2028 25.4726L42.3919 25.4698C41.5563 25.4697 40.8789 24.7921 40.8791 23.9565Z" fill="#087CA7"/>
</svg>
