<svg width="92" height="92" viewBox="0 0 92 92" fill="none" xmlns="http://www.w3.org/2000/svg">
<path fillRule="evenodd" clipRule="evenodd" d="M18.9286 46.0869C18.9286 31.0464 31.1236 18.8513 46.1641 18.8513C51.6216 18.8513 56.7091 20.4568 60.9749 23.226C61.6759 23.681 61.8752 24.618 61.4202 25.319C60.9652 26.0199 60.0282 26.2193 59.3273 25.7643C55.5375 23.3042 51.0198 21.8775 46.1641 21.8775C32.7949 21.8775 21.9548 32.7177 21.9548 46.0869C21.9548 59.4561 32.7949 70.2962 46.1641 70.2962C59.5333 70.2962 70.3735 59.4561 70.3735 46.0869C70.3735 39.4132 67.6751 33.3743 63.31 28.995C62.7201 28.4031 62.7217 27.4451 63.3135 26.8552C63.9054 26.2652 64.8634 26.2668 65.4533 26.8586C70.3605 31.7818 73.3997 38.5799 73.3997 46.0869C73.3997 61.1274 61.2046 73.3224 46.1641 73.3224C31.1236 73.3224 18.9286 61.1274 18.9286 46.0869ZM46.1641 30.956C37.8093 30.956 31.0333 37.732 31.0333 46.0869C31.0333 54.4417 37.8093 61.2177 46.1641 61.2177C54.519 61.2177 61.295 54.4417 61.295 46.0869C61.295 41.9654 59.6487 38.2314 56.9757 35.5006C56.3912 34.9034 56.4014 33.9454 56.9986 33.3609C57.5958 32.7763 58.5537 32.7866 59.1383 33.3837C62.3421 36.6568 64.3212 41.142 64.3212 46.0869C64.3212 56.113 56.1903 64.2439 46.1641 64.2439C36.138 64.2439 28.0071 56.113 28.0071 46.0869C28.0071 36.0607 36.138 27.9298 46.1641 27.9298C48.9244 27.9298 51.5473 28.5469 53.8941 29.6542C54.6498 30.0108 54.9734 30.9125 54.6168 31.6682C54.2602 32.424 53.3585 32.7476 52.6027 32.391C50.6523 31.4707 48.4697 30.956 46.1641 30.956Z" fill="#087CA7"/>
<path fillRule="evenodd" clipRule="evenodd" d="M46.1642 12.7991C27.7806 12.7991 12.8763 27.7034 12.8763 46.087C12.8763 64.4706 27.7806 79.3749 46.1642 79.3749C64.5477 79.3749 79.452 64.4706 79.452 46.087C79.452 39.1007 77.299 32.622 73.623 27.2672C73.15 26.5783 73.3251 25.6364 74.0141 25.1634C74.703 24.6905 75.6449 24.8656 76.1179 25.5545C80.1283 31.3965 82.4782 38.469 82.4782 46.087C82.4782 66.1419 66.219 82.4011 46.1642 82.4011C26.1093 82.4011 9.8501 66.1419 9.8501 46.087C9.8501 26.0321 26.1093 9.77295 46.1642 9.77295C51.4476 9.77295 56.4727 10.9032 61.0059 12.9344C61.7685 13.2761 62.1097 14.1714 61.768 14.9339C61.4263 15.6965 60.531 16.0377 59.7684 15.696C55.6165 13.8356 51.0124 12.7991 46.1642 12.7991Z" fill="#087CA7"/>
<path fillRule="evenodd" clipRule="evenodd" d="M46.1642 3.72051C22.7481 3.72051 3.79778 22.6708 3.79778 46.0869C3.79778 69.503 22.7481 88.4533 46.1642 88.4533C69.5803 88.4533 88.5306 69.503 88.5306 46.0869C88.5306 36.9886 85.6704 28.5674 80.8004 21.6699C80.3184 20.9873 80.4811 20.0431 81.1637 19.5612C81.8464 19.0792 82.7905 19.2418 83.2725 19.9245C88.4917 27.3166 91.5568 36.3443 91.5568 46.0869C91.5568 71.1743 71.2516 91.4795 46.1642 91.4795C21.0768 91.4795 0.771606 71.1743 0.771606 46.0869C0.771606 20.9995 21.0768 0.694336 46.1642 0.694336C53.6211 0.694336 60.66 2.49102 66.8665 5.67255C67.6101 6.05375 67.9039 6.96562 67.5227 7.70926C67.1415 8.4529 66.2297 8.74672 65.486 8.36552C59.6968 5.39787 53.13 3.72051 46.1642 3.72051Z" fill="#087CA7"/>
<path fillRule="evenodd" clipRule="evenodd" d="M78.518 2.32274C79.0834 2.55694 79.452 3.10866 79.452 3.72065V14.3123C79.452 14.7135 79.2926 15.0984 79.0089 15.3822L66.9042 27.4869C66.4714 27.9196 65.8206 28.049 65.2552 27.8148C64.6898 27.5806 64.3212 27.0289 64.3212 26.4169V15.8253C64.3212 15.424 64.4806 15.0392 64.7643 14.7554L76.869 2.65074C77.3018 2.218 77.9526 2.08854 78.518 2.32274ZM67.3473 16.4521V22.764L76.4259 13.6855V7.37356L67.3473 16.4521Z" fill="#087CA7"/>
<path fillRule="evenodd" clipRule="evenodd" d="M76.8691 13.2422C77.1528 12.9585 77.5377 12.7991 77.939 12.7991H88.5306C89.1426 12.7991 89.6943 13.1677 89.9285 13.7331C90.1627 14.2985 90.0332 14.9493 89.6005 15.3821L77.4958 27.4868C77.2121 27.7705 76.8272 27.9299 76.4259 27.9299H65.8343C65.2223 27.9299 64.6706 27.5613 64.4364 26.9959C64.2022 26.4305 64.3316 25.7797 64.7644 25.3469L76.8691 13.2422ZM78.5657 15.8252L69.4872 24.9038H75.7992L84.8777 15.8252H78.5657Z" fill="#087CA7"/>
<path fillRule="evenodd" clipRule="evenodd" d="M82.035 10.2161C82.6259 10.807 82.6259 11.7651 82.035 12.3559L47.2341 47.1569C46.6432 47.7478 45.6851 47.7478 45.0942 47.1569C44.5033 46.566 44.5033 45.608 45.0942 45.0171L79.8952 10.2161C80.4861 9.62522 81.4441 9.62522 82.035 10.2161Z" fill="#087CA7"/>
<path fillRule="evenodd" clipRule="evenodd" d="M46.1641 40.0345C42.8207 40.0345 40.1118 42.7433 40.1118 46.0868C40.1118 49.4303 42.8207 52.1392 46.1641 52.1392C49.5076 52.1392 52.2165 49.4303 52.2165 46.0868C52.2165 44.4111 51.538 42.8975 50.4366 41.7986C49.8451 41.2083 49.844 40.2503 50.4342 39.6587C51.0245 39.0672 51.9825 39.0661 52.5741 39.6564C54.2205 41.2992 55.2427 43.5743 55.2427 46.0868C55.2427 51.1016 51.1789 55.1653 46.1641 55.1653C41.1494 55.1653 37.0856 51.1016 37.0856 46.0868C37.0856 41.072 41.1494 37.0083 46.1641 37.0083C46.9998 37.0083 47.6772 37.6857 47.6772 38.5214C47.6772 39.357 46.9998 40.0345 46.1641 40.0345Z" fill="#087CA7"/>
</svg>
