<svg width="13" height="13" viewBox="0 0 13 13" fill="currentColor" xmlns="http://www.w3.org/2000/svg">
<path d="M10.5 0.125H1.75C0.765625 0.125 0 0.917969 0 1.875V10.625C0 11.6094 0.765625 12.375 1.75 12.375H10.5C11.457 12.375 12.25 11.6094 12.25 10.625V1.875C12.25 0.917969 11.457 0.125 10.5 0.125ZM6.125 2.75C7.19141 2.75 8.09375 3.65234 8.09375 4.71875C8.09375 5.8125 7.19141 6.6875 6.125 6.6875C5.03125 6.6875 4.15625 5.8125 4.15625 4.71875C4.15625 3.65234 5.03125 2.75 6.125 2.75ZM2.21484 10.625C2.43359 9.14844 3.69141 8 5.25 8H7C8.53125 8 9.78906 9.14844 10.0078 10.625H2.21484Z" fill="currentColor"/>
</svg>
