<svg width="12" height="12" viewBox="0 0 12 12" fill="none" xmlns="http://www.w3.org/2000/svg">
<path d="M10.8047 3.07031H1.875C1.66406 3.07031 1.5 2.90625 1.5 2.69531C1.5 2.50781 1.66406 2.32031 1.875 2.32031H10.875C11.0625 2.32031 11.25 2.15625 11.25 1.94531C11.25 1.33594 10.7344 0.820312 10.125 0.820312H1.5C0.65625 0.820312 0 1.5 0 2.32031V9.82031C0 10.6641 0.65625 11.3203 1.5 11.3203H10.8047C11.4609 11.3203 12 10.8281 12 10.1953V4.19531C12 3.58594 11.4609 3.07031 10.8047 3.07031ZM9.75 7.94531C9.32812 7.94531 9 7.61719 9 7.19531C9 6.79688 9.32812 6.44531 9.75 6.44531C10.1484 6.44531 10.5 6.79688 10.5 7.19531C10.5 7.61719 10.1484 7.94531 9.75 7.94531Z" fill="#232F3F"/>
</svg>
