<svg width="14" height="13" viewBox="0 0 14 13" fill="currentColor" xmlns="http://www.w3.org/2000/svg">
<path d="M6.35156 3.89844L7.61719 4.22656C7.71094 4.25 7.75781 4.32031 7.75781 4.41406C7.75781 4.53125 7.66406 4.625 7.54688 4.625H6.72656C6.63281 4.625 6.53906 4.60156 6.46875 4.55469C6.32812 4.50781 6.1875 4.53125 6.09375 4.60156L5.64844 5.02344C5.625 5.04688 5.625 5.07031 5.60156 5.09375C5.57812 5.11719 5.55469 5.16406 5.55469 5.21094C5.55469 5.32812 5.625 5.39844 5.69531 5.44531C5.92969 5.58594 6.21094 5.70312 6.49219 5.72656V6.125C6.49219 6.33594 6.67969 6.5 6.91406 6.5H7.3125C7.54688 6.5 7.73438 6.33594 7.73438 6.125V5.72656C8.48438 5.63281 9.07031 5 8.97656 4.25C8.90625 3.71094 8.46094 3.28906 7.875 3.125L6.60938 2.79688C6.51562 2.77344 6.46875 2.70312 6.46875 2.60938C6.46875 2.49219 6.5625 2.39844 6.67969 2.39844H7.5C7.59375 2.39844 7.6875 2.42188 7.78125 2.46875C7.89844 2.51562 8.03906 2.49219 8.13281 2.42188L8.57812 2C8.60156 1.97656 8.60156 1.95312 8.625 1.92969C8.64844 1.90625 8.67188 1.85938 8.67188 1.8125C8.67188 1.69531 8.60156 1.625 8.53125 1.57812C8.29688 1.4375 8.01562 1.34375 7.73438 1.29688V0.875C7.73438 0.6875 7.54688 0.5 7.3125 0.5H6.91406C6.67969 0.5 6.51562 0.6875 6.51562 0.875V1.29688C5.74219 1.39062 5.15625 2.02344 5.25 2.77344C5.32031 3.3125 5.78906 3.73438 6.35156 3.89844ZM13.2422 8.21094C12.9609 7.95312 12.5391 7.97656 12.2344 8.21094L10.0781 9.92188C9.82031 10.1328 9.49219 10.25 9.14062 10.25H6.375C6.16406 10.25 6 10.0859 6 9.875C6 9.6875 6.16406 9.5 6.375 9.5H8.20312C8.57812 9.5 8.92969 9.26562 8.97656 8.89062C8.97656 8.84375 9 8.79688 9 8.77344C9 8.75 9 8.75 9 8.75C8.97656 8.35156 8.64844 8 8.25 8H4.5C3.82031 8.02344 3.23438 8.23438 2.74219 8.63281L1.66406 9.5H0.375C0.164062 9.5 0 9.6875 0 9.875V12.125C0 12.3359 0.164062 12.5 0.375 12.5H8.71875C9.07031 12.5 9.39844 12.3828 9.65625 12.1719L13.2188 9.33594C13.3828 9.21875 13.5 9.00781 13.5 8.75C13.5 8.53906 13.3828 8.32812 13.2422 8.21094Z" fill="currentColorˆ"/>
</svg>
