<svg width="49" height="48" viewBox="0 0 49 48" fill="none" xmlns="http://www.w3.org/2000/svg">
<path d="M24.5 0C37.7188 0 48.5 10.7812 48.5 24C48.5 37.3125 37.7188 48 24.5 48C11.1875 48 0.5 37.3125 0.5 24C0.5 10.7812 11.1875 0 24.5 0ZM24.5 43.5C25.1562 43.5 26.9375 42.8438 28.9062 39C29.75 37.3125 30.4062 35.3438 30.9688 33H17.9375C18.5 35.3438 19.1562 37.3125 20 39C21.9688 42.8438 23.75 43.5 24.5 43.5ZM17.1875 28.5H31.7188C31.9062 27.0938 32 25.5938 32 24C32 22.5 31.9062 21 31.7188 19.5H17.1875C17 21 17 22.5 17 24C17 25.5938 17 27.0938 17.1875 28.5ZM30.9688 15C30.4062 12.75 29.75 10.7812 28.9062 9.09375C26.9375 5.25 25.1562 4.5 24.5 4.5C23.75 4.5 21.9688 5.25 20 9.09375C19.1562 10.7812 18.5 12.75 17.9375 15H30.9688ZM36.2188 19.5C36.4062 21 36.5 22.5 36.5 24C36.5 25.5938 36.4062 27.0938 36.2188 28.5H43.4375C43.8125 27.0938 44 25.5938 44 24C44 22.5 43.8125 21 43.4375 19.5H36.2188ZM32.5625 6.28125C33.875 8.71875 34.9062 11.7188 35.5625 15H41.75C39.7812 11.1562 36.5 8.0625 32.5625 6.28125ZM16.3438 6.28125C12.4062 8.0625 9.125 11.1562 7.15625 15H13.3438C14 11.7188 15.0312 8.71875 16.3438 6.28125ZM5 24C5 25.5938 5.09375 27.0938 5.46875 28.5H12.6875C12.5 27.0938 12.5 25.5938 12.5 24C12.5 22.5 12.5 21 12.6875 19.5H5.46875C5.09375 21 5 22.5 5 24ZM41.75 33H35.5625C34.9062 36.375 33.875 39.375 32.5625 41.8125C36.5 40.0312 39.7812 36.9375 41.75 33ZM13.3438 33H7.15625C9.125 36.9375 12.4062 40.0312 16.3438 41.8125C15.0312 39.375 14 36.375 13.3438 33Z" fill="#E42101"/>
</svg>
